<?xml version="1.0" encoding="UTF-8" standalone="no"?>
<!DOCTYPE svg PUBLIC "-//W3C//DTD SVG 1.1//EN"
 "http://www.w3.org/Graphics/SVG/1.1/DTD/svg11.dtd">
<!-- Generated by graphviz version 2.43.0 (0)
 -->
<!-- Title: G Pages: 1 -->
<svg width="1312pt" height="1971pt"
 viewBox="0.00 0.00 1311.87 1970.93" xmlns="http://www.w3.org/2000/svg" xmlns:xlink="http://www.w3.org/1999/xlink">
<g id="graph0" class="graph" transform="scale(1 1) rotate(0) translate(4 1966.93)">
<title>G</title>
<polygon fill="white" stroke="transparent" points="-4,4 -4,-1966.93 1307.87,-1966.93 1307.87,4 -4,4"/>
<!-- n3 -->
<g id="node1" class="node">
<title>n3</title>
<ellipse fill="none" stroke="black" cx="614.93" cy="-1590.02" rx="92.76" ry="37.45"/>
<text text-anchor="middle" x="614.93" y="-1601.32" font-family="Times,serif" font-size="14.00">id=BLOCK_REF</text>
<text text-anchor="middle" x="614.93" y="-1586.32" font-family="Times,serif" font-size="14.00">nid=3</text>
<text text-anchor="middle" x="614.93" y="-1571.32" font-family="Times,serif" font-size="14.00">value= &#39;0&#39;</text>
</g>
<!-- n4 -->
<g id="node2" class="node">
<title>n4</title>
<ellipse fill="none" stroke="black" cx="614.93" cy="-1474.67" rx="66.44" ry="26.74"/>
<text text-anchor="middle" x="614.93" y="-1478.47" font-family="Times,serif" font-size="14.00">id=BLOCK</text>
<text text-anchor="middle" x="614.93" y="-1463.47" font-family="Times,serif" font-size="14.00">nid=4</text>
</g>
<!-- n3&#45;&gt;n4 -->
<g id="edge1" class="edge">
<title>n3&#45;&gt;n4</title>
<path fill="none" stroke="black" d="M614.93,-1552.53C614.93,-1539.46 614.93,-1524.74 614.93,-1511.7"/>
<polygon fill="black" stroke="black" points="618.43,-1511.67 614.93,-1501.67 611.43,-1511.67 618.43,-1511.67"/>
<text text-anchor="middle" x="633.93" y="-1523.34" font-family="Times,serif" font-size="14.00">block</text>
</g>
<!-- n5 -->
<g id="node19" class="node">
<title>n5</title>
<ellipse fill="none" stroke="black" cx="1020.93" cy="-1128.63" rx="94.51" ry="37.45"/>
<text text-anchor="middle" x="1020.93" y="-1139.93" font-family="Times,serif" font-size="14.00">id=FLOWPOINT</text>
<text text-anchor="middle" x="1020.93" y="-1124.93" font-family="Times,serif" font-size="14.00">nid=5</text>
<text text-anchor="middle" x="1020.93" y="-1109.93" font-family="Times,serif" font-size="14.00">value= &#39;[&#39;a&#39;, &#39;b&#39;]&#39;</text>
</g>
<!-- n4&#45;&gt;n5 -->
<g id="edge23" class="edge">
<title>n4&#45;&gt;n5</title>
<path fill="none" stroke="black" d="M605.89,-1447.99C589.88,-1397.46 563.16,-1284.24 617.93,-1217.11 655.2,-1171.43 811.3,-1148.32 917.92,-1137.64"/>
<polygon fill="black" stroke="black" points="918.46,-1141.11 928.07,-1136.65 917.78,-1134.14 918.46,-1141.11"/>
<text text-anchor="middle" x="601.93" y="-1313.86" font-family="Times,serif" font-size="14.00">data</text>
</g>
<!-- n17 -->
<g id="node23" class="node">
<title>n17</title>
<ellipse fill="none" stroke="black" cx="797.93" cy="-1369.93" rx="54.39" ry="26.74"/>
<text text-anchor="middle" x="797.93" y="-1373.73" font-family="Times,serif" font-size="14.00">id=glom</text>
<text text-anchor="middle" x="797.93" y="-1358.73" font-family="Times,serif" font-size="14.00">nid=17</text>
</g>
<!-- n4&#45;&gt;n17 -->
<g id="edge24" class="edge">
<title>n4&#45;&gt;n17</title>
<path fill="none" stroke="black" d="M652.85,-1452.38C682.29,-1435.85 723.17,-1412.91 754.03,-1395.58"/>
<polygon fill="black" stroke="black" points="755.85,-1398.57 762.85,-1390.62 752.42,-1392.47 755.85,-1398.57"/>
<text text-anchor="middle" x="732.93" y="-1418.6" font-family="Times,serif" font-size="14.00">data</text>
</g>
<!-- n2 -->
<g id="node3" class="node">
<title>n2</title>
<ellipse fill="none" stroke="black" cx="614.93" cy="-1705.36" rx="71.34" ry="26.74"/>
<text text-anchor="middle" x="614.93" y="-1709.16" font-family="Times,serif" font-size="14.00">id=INVOKE</text>
<text text-anchor="middle" x="614.93" y="-1694.16" font-family="Times,serif" font-size="14.00">nid=2</text>
</g>
<!-- n2&#45;&gt;n3 -->
<g id="edge2" class="edge">
<title>n2&#45;&gt;n3</title>
<path fill="none" stroke="black" d="M614.93,-1678.36C614.93,-1666.38 614.93,-1651.79 614.93,-1637.98"/>
<polygon fill="black" stroke="black" points="618.43,-1637.64 614.93,-1627.64 611.43,-1637.64 618.43,-1637.64"/>
<text text-anchor="middle" x="630.93" y="-1649.29" font-family="Times,serif" font-size="14.00">data</text>
</g>
<!-- n1 -->
<g id="node4" class="node">
<title>n1</title>
<ellipse fill="none" stroke="black" cx="614.93" cy="-1820.71" rx="96.75" ry="37.45"/>
<text text-anchor="middle" x="614.93" y="-1832.01" font-family="Times,serif" font-size="14.00">id=FLOWPOINT</text>
<text text-anchor="middle" x="614.93" y="-1817.01" font-family="Times,serif" font-size="14.00">nid=1</text>
<text text-anchor="middle" x="614.93" y="-1802.01" font-family="Times,serif" font-size="14.00">value= &#39;[&#39;stdlib&#39;]&#39;</text>
</g>
<!-- n1&#45;&gt;n2 -->
<g id="edge3" class="edge">
<title>n1&#45;&gt;n2</title>
<path fill="none" stroke="black" d="M614.93,-1783.22C614.93,-1770.15 614.93,-1755.43 614.93,-1742.4"/>
<polygon fill="black" stroke="black" points="618.43,-1742.37 614.93,-1732.37 611.43,-1742.37 618.43,-1742.37"/>
<text text-anchor="middle" x="630.43" y="-1754.03" font-family="Times,serif" font-size="14.00">flow</text>
</g>
<!-- n0 -->
<g id="node5" class="node">
<title>n0</title>
<ellipse fill="none" stroke="black" cx="614.93" cy="-1936.06" rx="45.92" ry="26.74"/>
<text text-anchor="middle" x="614.93" y="-1939.86" font-family="Times,serif" font-size="14.00">id=file</text>
<text text-anchor="middle" x="614.93" y="-1924.86" font-family="Times,serif" font-size="14.00">nid=0</text>
</g>
<!-- n0&#45;&gt;n1 -->
<g id="edge4" class="edge">
<title>n0&#45;&gt;n1</title>
<path fill="none" stroke="black" d="M614.93,-1909.05C614.93,-1897.07 614.93,-1882.48 614.93,-1868.68"/>
<polygon fill="black" stroke="black" points="618.43,-1868.33 614.93,-1858.33 611.43,-1868.33 618.43,-1868.33"/>
<text text-anchor="middle" x="630.93" y="-1879.99" font-family="Times,serif" font-size="14.00">data</text>
</g>
<!-- n9 -->
<g id="node6" class="node">
<title>n9</title>
<ellipse fill="none" stroke="black" cx="62.93" cy="-667.24" rx="62.87" ry="37.45"/>
<text text-anchor="middle" x="62.93" y="-678.54" font-family="Times,serif" font-size="14.00">id=NAME</text>
<text text-anchor="middle" x="62.93" y="-663.54" font-family="Times,serif" font-size="14.00">nid=9</text>
<text text-anchor="middle" x="62.93" y="-648.54" font-family="Times,serif" font-size="14.00">value= &#39;b&#39;</text>
</g>
<!-- n10 -->
<g id="node7" class="node">
<title>n10</title>
<ellipse fill="none" stroke="black" cx="231.93" cy="-667.24" rx="88.28" ry="37.45"/>
<text text-anchor="middle" x="231.93" y="-678.54" font-family="Times,serif" font-size="14.00">id=OPERATOR</text>
<text text-anchor="middle" x="231.93" y="-663.54" font-family="Times,serif" font-size="14.00">nid=10</text>
<text text-anchor="middle" x="231.93" y="-648.54" font-family="Times,serif" font-size="14.00">value= &#39;==&#39;</text>
</g>
<!-- n11 -->
<g id="node8" class="node">
<title>n11</title>
<ellipse fill="none" stroke="black" cx="400.93" cy="-667.24" rx="62.45" ry="37.45"/>
<text text-anchor="middle" x="400.93" y="-678.54" font-family="Times,serif" font-size="14.00">id=INT</text>
<text text-anchor="middle" x="400.93" y="-663.54" font-family="Times,serif" font-size="14.00">nid=11</text>
<text text-anchor="middle" x="400.93" y="-648.54" font-family="Times,serif" font-size="14.00">value= &#39;0&#39;</text>
</g>
<!-- n8 -->
<g id="node9" class="node">
<title>n8</title>
<ellipse fill="none" stroke="black" cx="289.93" cy="-793.2" rx="73.58" ry="26.74"/>
<text text-anchor="middle" x="289.93" y="-797" font-family="Times,serif" font-size="14.00">id=equation</text>
<text text-anchor="middle" x="289.93" y="-782" font-family="Times,serif" font-size="14.00">nid=8</text>
</g>
<!-- n8&#45;&gt;n9 -->
<g id="edge5" class="edge">
<title>n8&#45;&gt;n9</title>
<path fill="none" stroke="black" d="M250.13,-770.46C213.37,-750.39 158.43,-720.39 117.56,-698.08"/>
<polygon fill="black" stroke="black" points="119,-694.87 108.55,-693.15 115.65,-701.02 119,-694.87"/>
<text text-anchor="middle" x="206.93" y="-726.52" font-family="Times,serif" font-size="14.00">data</text>
</g>
<!-- n8&#45;&gt;n10 -->
<g id="edge6" class="edge">
<title>n8&#45;&gt;n10</title>
<path fill="none" stroke="black" d="M277.91,-766.51C270.74,-751.18 261.42,-731.26 253.05,-713.37"/>
<polygon fill="black" stroke="black" points="256.18,-711.81 248.77,-704.23 249.84,-714.77 256.18,-711.81"/>
<text text-anchor="middle" x="280.93" y="-726.52" font-family="Times,serif" font-size="14.00">data</text>
</g>
<!-- n8&#45;&gt;n11 -->
<g id="edge7" class="edge">
<title>n8&#45;&gt;n11</title>
<path fill="none" stroke="black" d="M312.13,-767.41C327.32,-750.45 347.8,-727.58 365.26,-708.08"/>
<polygon fill="black" stroke="black" points="367.97,-710.3 372.03,-700.52 362.75,-705.63 367.97,-710.3"/>
<text text-anchor="middle" x="368.93" y="-726.52" font-family="Times,serif" font-size="14.00">data</text>
</g>
<!-- n12 -->
<g id="node10" class="node">
<title>n12</title>
<ellipse fill="none" stroke="black" cx="523.93" cy="-793.2" rx="92.76" ry="37.45"/>
<text text-anchor="middle" x="523.93" y="-804.5" font-family="Times,serif" font-size="14.00">id=BLOCK_REF</text>
<text text-anchor="middle" x="523.93" y="-789.5" font-family="Times,serif" font-size="14.00">nid=12</text>
<text text-anchor="middle" x="523.93" y="-774.5" font-family="Times,serif" font-size="14.00">value= &#39;1&#39;</text>
</g>
<!-- n21 -->
<g id="node11" class="node">
<title>n21</title>
<ellipse fill="none" stroke="black" cx="547.93" cy="-667.24" rx="66.44" ry="26.74"/>
<text text-anchor="middle" x="547.93" y="-671.04" font-family="Times,serif" font-size="14.00">id=BLOCK</text>
<text text-anchor="middle" x="547.93" y="-656.04" font-family="Times,serif" font-size="14.00">nid=21</text>
</g>
<!-- n12&#45;&gt;n21 -->
<g id="edge8" class="edge">
<title>n12&#45;&gt;n21</title>
<path fill="none" stroke="black" d="M531,-755.68C534.13,-739.51 537.81,-720.54 540.93,-704.42"/>
<polygon fill="black" stroke="black" points="544.43,-704.77 542.89,-694.28 537.55,-703.44 544.43,-704.77"/>
<text text-anchor="middle" x="556.93" y="-726.52" font-family="Times,serif" font-size="14.00">block</text>
</g>
<!-- n22 -->
<g id="node25" class="node">
<title>n22</title>
<ellipse fill="none" stroke="black" cx="547.93" cy="-541.29" rx="62.87" ry="37.45"/>
<text text-anchor="middle" x="547.93" y="-552.59" font-family="Times,serif" font-size="14.00">id=NAME</text>
<text text-anchor="middle" x="547.93" y="-537.59" font-family="Times,serif" font-size="14.00">nid=22</text>
<text text-anchor="middle" x="547.93" y="-522.59" font-family="Times,serif" font-size="14.00">value= &#39;a&#39;</text>
</g>
<!-- n21&#45;&gt;n22 -->
<g id="edge26" class="edge">
<title>n21&#45;&gt;n22</title>
<path fill="none" stroke="black" d="M547.93,-640.26C547.93,-625.56 547.93,-606.73 547.93,-589.51"/>
<polygon fill="black" stroke="black" points="551.43,-589.05 547.93,-579.05 544.43,-589.05 551.43,-589.05"/>
<text text-anchor="middle" x="563.93" y="-600.57" font-family="Times,serif" font-size="14.00">data</text>
</g>
<!-- n7 -->
<g id="node12" class="node">
<title>n7</title>
<ellipse fill="none" stroke="black" cx="523.93" cy="-908.54" rx="63.78" ry="26.74"/>
<text text-anchor="middle" x="523.93" y="-912.34" font-family="Times,serif" font-size="14.00">id=twople</text>
<text text-anchor="middle" x="523.93" y="-897.34" font-family="Times,serif" font-size="14.00">nid=7</text>
</g>
<!-- n7&#45;&gt;n8 -->
<g id="edge9" class="edge">
<title>n7&#45;&gt;n8</title>
<path fill="none" stroke="black" d="M483.17,-887.8C444.01,-868.83 384.67,-840.09 342.09,-819.46"/>
<polygon fill="black" stroke="black" points="343.52,-816.27 333,-815.06 340.47,-822.57 343.52,-816.27"/>
<text text-anchor="middle" x="443.93" y="-852.47" font-family="Times,serif" font-size="14.00">data</text>
</g>
<!-- n7&#45;&gt;n12 -->
<g id="edge10" class="edge">
<title>n7&#45;&gt;n12</title>
<path fill="none" stroke="black" d="M523.93,-881.54C523.93,-869.56 523.93,-854.97 523.93,-841.16"/>
<polygon fill="black" stroke="black" points="527.43,-840.82 523.93,-830.82 520.43,-840.82 527.43,-840.82"/>
<text text-anchor="middle" x="539.93" y="-852.47" font-family="Times,serif" font-size="14.00">data</text>
</g>
<!-- n15 -->
<g id="node13" class="node">
<title>n15</title>
<ellipse fill="none" stroke="black" cx="707.93" cy="-667.24" rx="62.45" ry="37.45"/>
<text text-anchor="middle" x="707.93" y="-678.54" font-family="Times,serif" font-size="14.00">id=INT</text>
<text text-anchor="middle" x="707.93" y="-663.54" font-family="Times,serif" font-size="14.00">nid=15</text>
<text text-anchor="middle" x="707.93" y="-648.54" font-family="Times,serif" font-size="14.00">value= &#39;1&#39;</text>
</g>
<!-- n14 -->
<g id="node14" class="node">
<title>n14</title>
<ellipse fill="none" stroke="black" cx="707.93" cy="-793.2" rx="73.58" ry="26.74"/>
<text text-anchor="middle" x="707.93" y="-797" font-family="Times,serif" font-size="14.00">id=equation</text>
<text text-anchor="middle" x="707.93" y="-782" font-family="Times,serif" font-size="14.00">nid=14</text>
</g>
<!-- n14&#45;&gt;n15 -->
<g id="edge11" class="edge">
<title>n14&#45;&gt;n15</title>
<path fill="none" stroke="black" d="M707.93,-766.21C707.93,-751.51 707.93,-732.68 707.93,-715.47"/>
<polygon fill="black" stroke="black" points="711.43,-715.01 707.93,-705.01 704.43,-715.01 711.43,-715.01"/>
<text text-anchor="middle" x="723.93" y="-726.52" font-family="Times,serif" font-size="14.00">data</text>
</g>
<!-- n16 -->
<g id="node15" class="node">
<title>n16</title>
<ellipse fill="none" stroke="black" cx="891.93" cy="-793.2" rx="92.76" ry="37.45"/>
<text text-anchor="middle" x="891.93" y="-804.5" font-family="Times,serif" font-size="14.00">id=BLOCK_REF</text>
<text text-anchor="middle" x="891.93" y="-789.5" font-family="Times,serif" font-size="14.00">nid=16</text>
<text text-anchor="middle" x="891.93" y="-774.5" font-family="Times,serif" font-size="14.00">value= &#39;2&#39;</text>
</g>
<!-- n24 -->
<g id="node16" class="node">
<title>n24</title>
<ellipse fill="none" stroke="black" cx="891.93" cy="-667.24" rx="66.44" ry="26.74"/>
<text text-anchor="middle" x="891.93" y="-671.04" font-family="Times,serif" font-size="14.00">id=BLOCK</text>
<text text-anchor="middle" x="891.93" y="-656.04" font-family="Times,serif" font-size="14.00">nid=24</text>
</g>
<!-- n16&#45;&gt;n24 -->
<g id="edge12" class="edge">
<title>n16&#45;&gt;n24</title>
<path fill="none" stroke="black" d="M891.93,-755.68C891.93,-739.51 891.93,-720.54 891.93,-704.42"/>
<polygon fill="black" stroke="black" points="895.43,-704.28 891.93,-694.28 888.43,-704.28 895.43,-704.28"/>
<text text-anchor="middle" x="910.93" y="-726.52" font-family="Times,serif" font-size="14.00">block</text>
</g>
<!-- n25 -->
<g id="node38" class="node">
<title>n25</title>
<ellipse fill="none" stroke="black" cx="891.93" cy="-541.29" rx="54.39" ry="26.74"/>
<text text-anchor="middle" x="891.93" y="-545.09" font-family="Times,serif" font-size="14.00">id=glom</text>
<text text-anchor="middle" x="891.93" y="-530.09" font-family="Times,serif" font-size="14.00">nid=25</text>
</g>
<!-- n24&#45;&gt;n25 -->
<g id="edge41" class="edge">
<title>n24&#45;&gt;n25</title>
<path fill="none" stroke="black" d="M891.93,-640.26C891.93,-622.33 891.93,-598.24 891.93,-578.44"/>
<polygon fill="black" stroke="black" points="895.43,-578.24 891.93,-568.24 888.43,-578.24 895.43,-578.24"/>
<text text-anchor="middle" x="907.93" y="-600.57" font-family="Times,serif" font-size="14.00">data</text>
</g>
<!-- n13 -->
<g id="node17" class="node">
<title>n13</title>
<ellipse fill="none" stroke="black" cx="783.93" cy="-908.54" rx="63.78" ry="26.74"/>
<text text-anchor="middle" x="783.93" y="-912.34" font-family="Times,serif" font-size="14.00">id=twople</text>
<text text-anchor="middle" x="783.93" y="-897.34" font-family="Times,serif" font-size="14.00">nid=13</text>
</g>
<!-- n13&#45;&gt;n14 -->
<g id="edge13" class="edge">
<title>n13&#45;&gt;n14</title>
<path fill="none" stroke="black" d="M767.07,-882.39C756.42,-866.5 742.52,-845.78 730.87,-828.41"/>
<polygon fill="black" stroke="black" points="733.49,-826.03 725.02,-819.67 727.68,-829.93 733.49,-826.03"/>
<text text-anchor="middle" x="767.93" y="-852.47" font-family="Times,serif" font-size="14.00">data</text>
</g>
<!-- n13&#45;&gt;n16 -->
<g id="edge14" class="edge">
<title>n13&#45;&gt;n16</title>
<path fill="none" stroke="black" d="M807.1,-883.23C820.2,-869.48 836.95,-851.9 852.1,-836.01"/>
<polygon fill="black" stroke="black" points="855.01,-838.02 859.38,-828.36 849.95,-833.19 855.01,-838.02"/>
<text text-anchor="middle" x="853.93" y="-852.47" font-family="Times,serif" font-size="14.00">data</text>
</g>
<!-- n6 -->
<g id="node18" class="node">
<title>n6</title>
<ellipse fill="none" stroke="black" cx="783.93" cy="-1013.28" rx="54.39" ry="26.74"/>
<text text-anchor="middle" x="783.93" y="-1017.08" font-family="Times,serif" font-size="14.00">id=filter</text>
<text text-anchor="middle" x="783.93" y="-1002.08" font-family="Times,serif" font-size="14.00">nid=6</text>
</g>
<!-- n6&#45;&gt;n7 -->
<g id="edge15" class="edge">
<title>n6&#45;&gt;n7</title>
<path fill="none" stroke="black" d="M742.16,-995.78C697.88,-978.28 627.76,-950.57 578.99,-931.3"/>
<polygon fill="black" stroke="black" points="580.13,-927.99 569.54,-927.57 577.55,-934.5 580.13,-927.99"/>
<text text-anchor="middle" x="684.93" y="-957.21" font-family="Times,serif" font-size="14.00">data</text>
</g>
<!-- n6&#45;&gt;n13 -->
<g id="edge16" class="edge">
<title>n6&#45;&gt;n13</title>
<path fill="none" stroke="black" d="M783.93,-986.36C783.93,-974.07 783.93,-959.18 783.93,-945.79"/>
<polygon fill="black" stroke="black" points="787.43,-945.46 783.93,-935.46 780.43,-945.46 787.43,-945.46"/>
<text text-anchor="middle" x="799.93" y="-957.21" font-family="Times,serif" font-size="14.00">data</text>
</g>
<!-- n5&#45;&gt;n6 -->
<g id="edge17" class="edge">
<title>n5&#45;&gt;n6</title>
<path fill="none" stroke="black" d="M961.74,-1099.32C921.42,-1080.04 868.76,-1054.85 831.23,-1036.91"/>
<polygon fill="black" stroke="black" points="832.57,-1033.66 822.04,-1032.51 829.55,-1039.98 832.57,-1033.66"/>
<text text-anchor="middle" x="917.43" y="-1061.95" font-family="Times,serif" font-size="14.00">flow</text>
</g>
<!-- n18 -->
<g id="node20" class="node">
<title>n18</title>
<ellipse fill="none" stroke="black" cx="707.93" cy="-1254.58" rx="81.13" ry="37.45"/>
<text text-anchor="middle" x="707.93" y="-1265.88" font-family="Times,serif" font-size="14.00">id=INT</text>
<text text-anchor="middle" x="707.93" y="-1250.88" font-family="Times,serif" font-size="14.00">nid=18</text>
<text text-anchor="middle" x="707.93" y="-1235.88" font-family="Times,serif" font-size="14.00">value= &#39;2740&#39;</text>
</g>
<!-- n19 -->
<g id="node21" class="node">
<title>n19</title>
<ellipse fill="none" stroke="black" cx="888.93" cy="-1254.58" rx="81.13" ry="37.45"/>
<text text-anchor="middle" x="888.93" y="-1265.88" font-family="Times,serif" font-size="14.00">id=INT</text>
<text text-anchor="middle" x="888.93" y="-1250.88" font-family="Times,serif" font-size="14.00">nid=19</text>
<text text-anchor="middle" x="888.93" y="-1235.88" font-family="Times,serif" font-size="14.00">value= &#39;5984&#39;</text>
</g>
<!-- n20 -->
<g id="node22" class="node">
<title>n20</title>
<ellipse fill="none" stroke="black" cx="1082.93" cy="-1254.58" rx="94.51" ry="37.45"/>
<text text-anchor="middle" x="1082.93" y="-1265.88" font-family="Times,serif" font-size="14.00">id=FLOWPOINT</text>
<text text-anchor="middle" x="1082.93" y="-1250.88" font-family="Times,serif" font-size="14.00">nid=20</text>
<text text-anchor="middle" x="1082.93" y="-1235.88" font-family="Times,serif" font-size="14.00">value= &#39;[&#39;a&#39;, &#39;b&#39;]&#39;</text>
</g>
<!-- n20&#45;&gt;n5 -->
<g id="edge18" class="edge">
<title>n20&#45;&gt;n5</title>
<path fill="none" stroke="red" d="M1037.83,-1221.57C1031.4,-1214.91 1025.71,-1207.37 1021.93,-1199.11 1018.73,-1192.09 1017.06,-1184.24 1016.37,-1176.41"/>
<polygon fill="red" stroke="red" points="1019.86,-1176.06 1015.97,-1166.21 1012.86,-1176.34 1019.86,-1176.06"/>
<text text-anchor="middle" x="1041.43" y="-1187.91" font-family="Times,serif" font-size="14.00">flowa</text>
</g>
<!-- n20&#45;&gt;n5 -->
<g id="edge19" class="edge">
<title>n20&#45;&gt;n5</title>
<path fill="none" stroke="red" d="M1073.79,-1217C1070.43,-1206.12 1066.15,-1194.37 1060.93,-1184.11 1059.05,-1180.4 1056.92,-1176.67 1054.65,-1173.01"/>
<polygon fill="red" stroke="red" points="1057.55,-1171.05 1049.15,-1164.6 1051.69,-1174.88 1057.55,-1171.05"/>
<text text-anchor="middle" x="1086.93" y="-1187.91" font-family="Times,serif" font-size="14.00">flowb</text>
</g>
<!-- n17&#45;&gt;n18 -->
<g id="edge21" class="edge">
<title>n17&#45;&gt;n18</title>
<path fill="none" stroke="black" d="M778.63,-1344.61C767.89,-1331.1 754.23,-1313.89 741.78,-1298.21"/>
<polygon fill="black" stroke="black" points="744.36,-1295.84 735.4,-1290.18 738.88,-1300.19 744.36,-1295.84"/>
<text text-anchor="middle" x="776.93" y="-1313.86" font-family="Times,serif" font-size="14.00">data</text>
</g>
<!-- n17&#45;&gt;n19 -->
<g id="edge22" class="edge">
<title>n17&#45;&gt;n19</title>
<path fill="none" stroke="black" d="M817.45,-1344.61C828.31,-1331.1 842.12,-1313.89 854.71,-1298.21"/>
<polygon fill="black" stroke="black" points="857.63,-1300.17 861.16,-1290.18 852.17,-1295.79 857.63,-1300.17"/>
<text text-anchor="middle" x="858.93" y="-1313.86" font-family="Times,serif" font-size="14.00">data</text>
</g>
<!-- n17&#45;&gt;n20 -->
<g id="edge20" class="edge">
<title>n17&#45;&gt;n20</title>
<path fill="none" stroke="black" d="M839.37,-1352.45C883.36,-1334.96 953.8,-1306.94 1007.64,-1285.53"/>
<polygon fill="black" stroke="black" points="1009.15,-1288.69 1017.15,-1281.74 1006.57,-1282.19 1009.15,-1288.69"/>
<text text-anchor="middle" x="955.43" y="-1313.86" font-family="Times,serif" font-size="14.00">flow</text>
</g>
<!-- n23 -->
<g id="node24" class="node">
<title>n23</title>
<ellipse fill="none" stroke="black" cx="547.93" cy="-415.34" rx="101.23" ry="37.45"/>
<text text-anchor="middle" x="547.93" y="-426.64" font-family="Times,serif" font-size="14.00">id=FLOWPOINT</text>
<text text-anchor="middle" x="547.93" y="-411.64" font-family="Times,serif" font-size="14.00">nid=23</text>
<text text-anchor="middle" x="547.93" y="-396.64" font-family="Times,serif" font-size="14.00">value= &#39;[&#39;stdout&#39;]&#39;</text>
</g>
<!-- n22&#45;&gt;n23 -->
<g id="edge25" class="edge">
<title>n22&#45;&gt;n23</title>
<path fill="none" stroke="black" d="M547.93,-503.77C547.93,-491.02 547.93,-476.54 547.93,-463.07"/>
<polygon fill="black" stroke="black" points="551.43,-463.02 547.93,-453.02 544.43,-463.02 551.43,-463.02"/>
<text text-anchor="middle" x="563.43" y="-474.61" font-family="Times,serif" font-size="14.00">flow</text>
</g>
<!-- n26 -->
<g id="node26" class="node">
<title>n26</title>
<ellipse fill="none" stroke="black" cx="737.93" cy="-415.34" rx="62.87" ry="37.45"/>
<text text-anchor="middle" x="737.93" y="-426.64" font-family="Times,serif" font-size="14.00">id=NAME</text>
<text text-anchor="middle" x="737.93" y="-411.64" font-family="Times,serif" font-size="14.00">nid=26</text>
<text text-anchor="middle" x="737.93" y="-396.64" font-family="Times,serif" font-size="14.00">value= &#39;b&#39;</text>
</g>
<!-- n28 -->
<g id="node27" class="node">
<title>n28</title>
<ellipse fill="none" stroke="black" cx="722.93" cy="-289.38" rx="62.87" ry="37.45"/>
<text text-anchor="middle" x="722.93" y="-300.68" font-family="Times,serif" font-size="14.00">id=NAME</text>
<text text-anchor="middle" x="722.93" y="-285.68" font-family="Times,serif" font-size="14.00">nid=28</text>
<text text-anchor="middle" x="722.93" y="-270.68" font-family="Times,serif" font-size="14.00">value= &#39;a&#39;</text>
</g>
<!-- n29 -->
<g id="node28" class="node">
<title>n29</title>
<ellipse fill="none" stroke="black" cx="891.93" cy="-289.38" rx="88.28" ry="37.45"/>
<text text-anchor="middle" x="891.93" y="-300.68" font-family="Times,serif" font-size="14.00">id=OPERATOR</text>
<text text-anchor="middle" x="891.93" y="-285.68" font-family="Times,serif" font-size="14.00">nid=29</text>
<text text-anchor="middle" x="891.93" y="-270.68" font-family="Times,serif" font-size="14.00">value= &#39;&#45;&#39;</text>
</g>
<!-- n32 -->
<g id="node29" class="node">
<title>n32</title>
<ellipse fill="none" stroke="black" cx="722.93" cy="-37.48" rx="62.87" ry="37.45"/>
<text text-anchor="middle" x="722.93" y="-48.78" font-family="Times,serif" font-size="14.00">id=NAME</text>
<text text-anchor="middle" x="722.93" y="-33.78" font-family="Times,serif" font-size="14.00">nid=32</text>
<text text-anchor="middle" x="722.93" y="-18.78" font-family="Times,serif" font-size="14.00">value= &#39;a&#39;</text>
</g>
<!-- n33 -->
<g id="node30" class="node">
<title>n33</title>
<ellipse fill="none" stroke="black" cx="891.93" cy="-37.48" rx="88.28" ry="37.45"/>
<text text-anchor="middle" x="891.93" y="-48.78" font-family="Times,serif" font-size="14.00">id=OPERATOR</text>
<text text-anchor="middle" x="891.93" y="-33.78" font-family="Times,serif" font-size="14.00">nid=33</text>
<text text-anchor="middle" x="891.93" y="-18.78" font-family="Times,serif" font-size="14.00">value= &#39;/&#39;</text>
</g>
<!-- n34 -->
<g id="node31" class="node">
<title>n34</title>
<ellipse fill="none" stroke="black" cx="1060.93" cy="-37.48" rx="62.87" ry="37.45"/>
<text text-anchor="middle" x="1060.93" y="-48.78" font-family="Times,serif" font-size="14.00">id=NAME</text>
<text text-anchor="middle" x="1060.93" y="-33.78" font-family="Times,serif" font-size="14.00">nid=34</text>
<text text-anchor="middle" x="1060.93" y="-18.78" font-family="Times,serif" font-size="14.00">value= &#39;b&#39;</text>
</g>
<!-- n31 -->
<g id="node32" class="node">
<title>n31</title>
<ellipse fill="none" stroke="black" cx="891.93" cy="-163.43" rx="73.58" ry="26.74"/>
<text text-anchor="middle" x="891.93" y="-167.23" font-family="Times,serif" font-size="14.00">id=equation</text>
<text text-anchor="middle" x="891.93" y="-152.23" font-family="Times,serif" font-size="14.00">nid=31</text>
</g>
<!-- n31&#45;&gt;n32 -->
<g id="edge27" class="edge">
<title>n31&#45;&gt;n32</title>
<path fill="none" stroke="black" d="M860.14,-139.12C834.82,-120.54 798.98,-94.25 770.28,-73.2"/>
<polygon fill="black" stroke="black" points="772.14,-70.23 762,-67.13 768,-75.87 772.14,-70.23"/>
<text text-anchor="middle" x="832.93" y="-96.75" font-family="Times,serif" font-size="14.00">data</text>
</g>
<!-- n31&#45;&gt;n33 -->
<g id="edge28" class="edge">
<title>n31&#45;&gt;n33</title>
<path fill="none" stroke="black" d="M891.93,-136.45C891.93,-121.75 891.93,-102.92 891.93,-85.7"/>
<polygon fill="black" stroke="black" points="895.43,-85.24 891.93,-75.24 888.43,-85.24 895.43,-85.24"/>
<text text-anchor="middle" x="907.93" y="-96.75" font-family="Times,serif" font-size="14.00">data</text>
</g>
<!-- n31&#45;&gt;n34 -->
<g id="edge29" class="edge">
<title>n31&#45;&gt;n34</title>
<path fill="none" stroke="black" d="M923.72,-139.12C949.04,-120.54 984.89,-94.25 1013.59,-73.2"/>
<polygon fill="black" stroke="black" points="1015.87,-75.87 1021.86,-67.13 1011.73,-70.23 1015.87,-75.87"/>
<text text-anchor="middle" x="1001.93" y="-96.75" font-family="Times,serif" font-size="14.00">data</text>
</g>
<!-- n35 -->
<g id="node33" class="node">
<title>n35</title>
<ellipse fill="none" stroke="black" cx="1071.93" cy="-163.43" rx="88.28" ry="37.45"/>
<text text-anchor="middle" x="1071.93" y="-174.73" font-family="Times,serif" font-size="14.00">id=OPERATOR</text>
<text text-anchor="middle" x="1071.93" y="-159.73" font-family="Times,serif" font-size="14.00">nid=35</text>
<text text-anchor="middle" x="1071.93" y="-144.73" font-family="Times,serif" font-size="14.00">value= &#39;*&#39;</text>
</g>
<!-- n36 -->
<g id="node34" class="node">
<title>n36</title>
<ellipse fill="none" stroke="black" cx="1240.93" cy="-163.43" rx="62.87" ry="37.45"/>
<text text-anchor="middle" x="1240.93" y="-174.73" font-family="Times,serif" font-size="14.00">id=NAME</text>
<text text-anchor="middle" x="1240.93" y="-159.73" font-family="Times,serif" font-size="14.00">nid=36</text>
<text text-anchor="middle" x="1240.93" y="-144.73" font-family="Times,serif" font-size="14.00">value= &#39;b&#39;</text>
</g>
<!-- n30 -->
<g id="node35" class="node">
<title>n30</title>
<ellipse fill="none" stroke="black" cx="1071.93" cy="-289.38" rx="73.58" ry="26.74"/>
<text text-anchor="middle" x="1071.93" y="-293.18" font-family="Times,serif" font-size="14.00">id=equation</text>
<text text-anchor="middle" x="1071.93" y="-278.18" font-family="Times,serif" font-size="14.00">nid=30</text>
</g>
<!-- n30&#45;&gt;n31 -->
<g id="edge30" class="edge">
<title>n30&#45;&gt;n31</title>
<path fill="none" stroke="black" d="M1038.5,-265.36C1008.91,-244.99 965.61,-215.17 933.74,-193.22"/>
<polygon fill="black" stroke="black" points="935.71,-190.33 925.49,-187.54 931.74,-196.1 935.71,-190.33"/>
<text text-anchor="middle" x="1007.93" y="-222.71" font-family="Times,serif" font-size="14.00">data</text>
</g>
<!-- n30&#45;&gt;n35 -->
<g id="edge31" class="edge">
<title>n30&#45;&gt;n35</title>
<path fill="none" stroke="black" d="M1071.93,-262.4C1071.93,-247.7 1071.93,-228.87 1071.93,-211.65"/>
<polygon fill="black" stroke="black" points="1075.43,-211.19 1071.93,-201.19 1068.43,-211.19 1075.43,-211.19"/>
<text text-anchor="middle" x="1087.93" y="-222.71" font-family="Times,serif" font-size="14.00">data</text>
</g>
<!-- n30&#45;&gt;n36 -->
<g id="edge32" class="edge">
<title>n30&#45;&gt;n36</title>
<path fill="none" stroke="black" d="M1103.72,-265.07C1129.04,-246.49 1164.89,-220.21 1193.59,-199.16"/>
<polygon fill="black" stroke="black" points="1195.87,-201.82 1201.86,-193.09 1191.73,-196.18 1195.87,-201.82"/>
<text text-anchor="middle" x="1181.93" y="-222.71" font-family="Times,serif" font-size="14.00">data</text>
</g>
<!-- n27 -->
<g id="node36" class="node">
<title>n27</title>
<ellipse fill="none" stroke="black" cx="891.93" cy="-415.34" rx="73.58" ry="26.74"/>
<text text-anchor="middle" x="891.93" y="-419.14" font-family="Times,serif" font-size="14.00">id=equation</text>
<text text-anchor="middle" x="891.93" y="-404.14" font-family="Times,serif" font-size="14.00">nid=27</text>
</g>
<!-- n27&#45;&gt;n28 -->
<g id="edge33" class="edge">
<title>n27&#45;&gt;n28</title>
<path fill="none" stroke="black" d="M860.14,-391.02C834.82,-372.45 798.98,-346.16 770.28,-325.11"/>
<polygon fill="black" stroke="black" points="772.14,-322.13 762,-319.04 768,-327.78 772.14,-322.13"/>
<text text-anchor="middle" x="832.93" y="-348.66" font-family="Times,serif" font-size="14.00">data</text>
</g>
<!-- n27&#45;&gt;n29 -->
<g id="edge34" class="edge">
<title>n27&#45;&gt;n29</title>
<path fill="none" stroke="black" d="M891.93,-388.35C891.93,-373.65 891.93,-354.82 891.93,-337.61"/>
<polygon fill="black" stroke="black" points="895.43,-337.15 891.93,-327.15 888.43,-337.15 895.43,-337.15"/>
<text text-anchor="middle" x="907.93" y="-348.66" font-family="Times,serif" font-size="14.00">data</text>
</g>
<!-- n27&#45;&gt;n30 -->
<g id="edge35" class="edge">
<title>n27&#45;&gt;n30</title>
<path fill="none" stroke="black" d="M925.37,-391.31C954.95,-370.94 998.25,-341.12 1030.12,-319.18"/>
<polygon fill="black" stroke="black" points="1032.12,-322.05 1038.37,-313.49 1028.15,-316.28 1032.12,-322.05"/>
<text text-anchor="middle" x="1007.93" y="-348.66" font-family="Times,serif" font-size="14.00">data</text>
</g>
<!-- n37 -->
<g id="node37" class="node">
<title>n37</title>
<ellipse fill="none" stroke="black" cx="1077.93" cy="-415.34" rx="94.51" ry="37.45"/>
<text text-anchor="middle" x="1077.93" y="-426.64" font-family="Times,serif" font-size="14.00">id=FLOWPOINT</text>
<text text-anchor="middle" x="1077.93" y="-411.64" font-family="Times,serif" font-size="14.00">nid=37</text>
<text text-anchor="middle" x="1077.93" y="-396.64" font-family="Times,serif" font-size="14.00">value= &#39;[&#39;a&#39;, &#39;b&#39;]&#39;</text>
</g>
<!-- n37&#45;&gt;n5 -->
<g id="edge36" class="edge">
<title>n37&#45;&gt;n5</title>
<path fill="none" stroke="red" d="M1051.93,-451.54C1036.9,-475.35 1020.93,-508.2 1020.93,-540.29 1020.93,-1014.28 1020.93,-1014.28 1020.93,-1014.28 1020.93,-1036.25 1020.93,-1060.62 1020.93,-1081.11"/>
<polygon fill="red" stroke="red" points="1017.43,-1081.13 1020.93,-1091.13 1024.43,-1081.13 1017.43,-1081.13"/>
<text text-anchor="middle" x="1040.43" y="-789.5" font-family="Times,serif" font-size="14.00">flowa</text>
</g>
<!-- n37&#45;&gt;n5 -->
<g id="edge37" class="edge">
<title>n37&#45;&gt;n5</title>
<path fill="none" stroke="red" d="M1086.04,-452.75C1090.82,-477.34 1095.93,-510.61 1095.93,-540.29 1095.93,-1014.28 1095.93,-1014.28 1095.93,-1014.28 1095.93,-1041.16 1081.09,-1066.55 1064.61,-1086.46"/>
<polygon fill="red" stroke="red" points="1061.9,-1084.25 1057.99,-1094.09 1067.19,-1088.83 1061.9,-1084.25"/>
<text text-anchor="middle" x="1115.93" y="-789.5" font-family="Times,serif" font-size="14.00">flowb</text>
</g>
<!-- n25&#45;&gt;n26 -->
<g id="edge39" class="edge">
<title>n25&#45;&gt;n26</title>
<path fill="none" stroke="black" d="M864.04,-517.84C841.34,-499.57 808.87,-473.43 782.56,-452.25"/>
<polygon fill="black" stroke="black" points="784.59,-449.4 774.61,-445.86 780.2,-454.85 784.59,-449.4"/>
<text text-anchor="middle" x="839.93" y="-474.61" font-family="Times,serif" font-size="14.00">data</text>
</g>
<!-- n25&#45;&gt;n27 -->
<g id="edge40" class="edge">
<title>n25&#45;&gt;n27</title>
<path fill="none" stroke="black" d="M891.93,-514.31C891.93,-496.37 891.93,-472.29 891.93,-452.49"/>
<polygon fill="black" stroke="black" points="895.43,-452.29 891.93,-442.29 888.43,-452.29 895.43,-452.29"/>
<text text-anchor="middle" x="907.93" y="-474.61" font-family="Times,serif" font-size="14.00">data</text>
</g>
<!-- n25&#45;&gt;n37 -->
<g id="edge38" class="edge">
<title>n25&#45;&gt;n37</title>
<path fill="none" stroke="black" d="M917,-517.3C933.17,-503.04 955.03,-484.83 975.93,-470.81 986.83,-463.51 998.81,-456.38 1010.6,-449.82"/>
<polygon fill="black" stroke="black" points="1012.48,-452.78 1019.57,-444.92 1009.12,-446.64 1012.48,-452.78"/>
<text text-anchor="middle" x="991.43" y="-474.61" font-family="Times,serif" font-size="14.00">flow</text>
</g>
</g>
</svg>
