<?xml version="1.0" encoding="UTF-8" standalone="no"?>
<!DOCTYPE svg PUBLIC "-//W3C//DTD SVG 1.1//EN"
 "http://www.w3.org/Graphics/SVG/1.1/DTD/svg11.dtd">
<!-- Generated by graphviz version 2.43.0 (0)
 -->
<!-- Title: G Pages: 1 -->
<svg width="2887pt" height="1218pt"
 viewBox="0.00 0.00 2887.00 1217.71" xmlns="http://www.w3.org/2000/svg" xmlns:xlink="http://www.w3.org/1999/xlink">
<g id="graph0" class="graph" transform="scale(1 1) rotate(0) translate(4 1213.71)">
<title>G</title>
<polygon fill="white" stroke="transparent" points="-4,4 -4,-1213.71 2883,-1213.71 2883,4 -4,4"/>
<g id="clust1" class="cluster">
<title>cluster1</title>
<polygon fill="none" stroke="black" points="8,-8 8,-1123.97 2871,-1123.97 2871,-8 8,-8"/>
</g>
<g id="clust2" class="cluster">
<title>cluster2</title>
<polygon fill="none" stroke="black" points="218,-16 218,-1115.97 2863,-1115.97 2863,-16 218,-16"/>
</g>
<g id="clust3" class="cluster">
<title>cluster3</title>
<polygon fill="none" stroke="black" points="342,-24 342,-1107.97 2855,-1107.97 2855,-24 342,-24"/>
</g>
<g id="clust4" class="cluster">
<title>cluster4</title>
<polygon fill="none" stroke="black" points="508,-32 508,-1099.97 2847,-1099.97 2847,-32 508,-32"/>
</g>
<g id="clust5" class="cluster">
<title>cluster13</title>
<polygon fill="none" stroke="black" points="516,-448.86 516,-640.16 1079,-640.16 1079,-448.86 516,-448.86"/>
</g>
<g id="clust6" class="cluster">
<title>cluster5</title>
<polygon fill="none" stroke="black" points="1087,-40 1087,-1091.97 2839,-1091.97 2839,-40 1087,-40"/>
</g>
<g id="clust7" class="cluster">
<title>cluster6</title>
<polygon fill="none" stroke="black" points="1289,-48 1289,-1083.97 2831,-1083.97 2831,-48 1289,-48"/>
</g>
<g id="clust8" class="cluster">
<title>cluster11</title>
<polygon fill="none" stroke="black" points="1845,-56 1845,-983.63 2823,-983.63 2823,-56 1845,-56"/>
</g>
<g id="clust9" class="cluster">
<title>cluster12</title>
<polygon fill="none" stroke="black" points="1853,-64 1853,-872.67 2815,-872.67 2815,-64 1853,-64"/>
</g>
<g id="clust10" class="cluster">
<title>cluster20</title>
<polygon fill="none" stroke="black" points="1861,-72 1861,-761.72 2807,-761.72 2807,-72 1861,-72"/>
</g>
<g id="clust11" class="cluster">
<title>cluster21</title>
<polygon fill="none" stroke="black" points="1869,-80 1869,-640.16 2799,-640.16 2799,-80 1869,-80"/>
</g>
<g id="clust12" class="cluster">
<title>cluster23</title>
<polygon fill="none" stroke="black" points="2213,-88 2213,-539.81 2791,-539.81 2791,-88 2213,-88"/>
</g>
<g id="clust13" class="cluster">
<title>cluster25</title>
<polygon fill="none" stroke="black" points="2353,-96 2353,-416.86 2783,-416.86 2783,-96 2353,-96"/>
</g>
<g id="clust14" class="cluster">
<title>cluster26</title>
<polygon fill="none" stroke="black" points="2361,-104 2361,-305.91 2643,-305.91 2643,-104 2361,-104"/>
</g>
<g id="clust15" class="cluster">
<title>cluster7</title>
<polygon fill="none" stroke="black" points="1297,-424.86 1297,-983.63 1837,-983.63 1837,-424.86 1297,-424.86"/>
</g>
<g id="clust16" class="cluster">
<title>cluster10</title>
<polygon fill="none" stroke="black" points="1579,-432.86 1579,-872.67 1829,-872.67 1829,-432.86 1579,-432.86"/>
</g>
<g id="clust17" class="cluster">
<title>cluster17</title>
<polygon fill="none" stroke="black" points="1587,-440.86 1587,-761.72 1821,-761.72 1821,-440.86 1587,-440.86"/>
</g>
<g id="clust18" class="cluster">
<title>cluster18</title>
<polygon fill="none" stroke="black" points="1595,-448.86 1595,-650.77 1813,-650.77 1813,-448.86 1595,-448.86"/>
</g>
<g id="clust19" class="cluster">
<title>cluster0</title>
<polygon fill="none" stroke="black" points="63,-1131.97 63,-1201.71 163,-1201.71 163,-1131.97 63,-1131.97"/>
</g>
<!-- n3 -->
<g id="node1" class="node">
<title>n3</title>
<ellipse fill="none" stroke="black" cx="425" cy="-827.2" rx="74.91" ry="37.45"/>
<text text-anchor="middle" x="425" y="-838.5" font-family="Times,serif" font-size="14.00">BLOCK_REF</text>
<text text-anchor="middle" x="425" y="-823.5" font-family="Times,serif" font-size="14.00">nid=3</text>
<text text-anchor="middle" x="425" y="-808.5" font-family="Times,serif" font-size="14.00">value= &#39;0&#39;</text>
</g>
<!-- n4 -->
<g id="node2" class="node">
<title>n4</title>
<ellipse fill="none" stroke="black" cx="786" cy="-716.24" rx="67.35" ry="37.45"/>
<text text-anchor="middle" x="786" y="-727.54" font-family="Times,serif" font-size="14.00">BLOCK</text>
<text text-anchor="middle" x="786" y="-712.54" font-family="Times,serif" font-size="14.00">nid=4</text>
<text text-anchor="middle" x="786" y="-697.54" font-family="Times,serif" font-size="14.00">block_id=0</text>
</g>
<!-- n3&#45;&gt;n4 -->
<g id="edge1" class="edge">
<title>n3&#45;&gt;n4</title>
<path fill="none" stroke="purple" d="M488.29,-807.09C552.54,-787.7 651.67,-757.78 717.67,-737.87"/>
<polygon fill="purple" stroke="purple" points="719,-741.12 727.56,-734.88 716.98,-734.42 719,-741.12"/>
</g>
<!-- n5 -->
<g id="node15" class="node">
<title>n5</title>
<ellipse fill="none" stroke="black" cx="1188" cy="-371.38" rx="92.76" ry="37.45"/>
<text text-anchor="middle" x="1188" y="-382.68" font-family="Times,serif" font-size="14.00">FLOWPOINT</text>
<text text-anchor="middle" x="1188" y="-367.68" font-family="Times,serif" font-size="14.00">nid=5</text>
<text text-anchor="middle" x="1188" y="-352.68" font-family="Times,serif" font-size="14.00">value= &#39;[&#39;a&#39;, &#39;b&#39;]&#39;</text>
</g>
<!-- n4&#45;&gt;n5 -->
<g id="edge19" class="edge">
<title>n4&#45;&gt;n5</title>
<path fill="none" stroke="grey" d="M851.86,-708.3C928.51,-699 1048.95,-680.15 1083,-650.77 1152.09,-591.15 1175.83,-481.24 1183.9,-418.84"/>
<polygon fill="grey" stroke="grey" points="1187.38,-419.23 1185.11,-408.88 1180.43,-418.39 1187.38,-419.23"/>
</g>
<!-- n13 -->
<g id="node19" class="node">
<title>n13</title>
<ellipse fill="none" stroke="black" cx="786" cy="-605.29" rx="48.58" ry="26.74"/>
<text text-anchor="middle" x="786" y="-609.09" font-family="Times,serif" font-size="14.00">glom</text>
<text text-anchor="middle" x="786" y="-594.09" font-family="Times,serif" font-size="14.00">nid=13</text>
</g>
<!-- n4&#45;&gt;n13 -->
<g id="edge20" class="edge">
<title>n4&#45;&gt;n13</title>
<path fill="none" stroke="grey" d="M786,-678.66C786,-667.02 786,-654.15 786,-642.53"/>
<polygon fill="grey" stroke="grey" points="789.5,-642.28 786,-632.28 782.5,-642.28 789.5,-642.28"/>
</g>
<!-- n2 -->
<g id="node3" class="node">
<title>n2</title>
<ellipse fill="none" stroke="black" cx="280" cy="-938.15" rx="53.98" ry="26.74"/>
<text text-anchor="middle" x="280" y="-941.95" font-family="Times,serif" font-size="14.00">INVOKE</text>
<text text-anchor="middle" x="280" y="-926.95" font-family="Times,serif" font-size="14.00">nid=2</text>
</g>
<!-- n2&#45;&gt;n3 -->
<g id="edge2" class="edge">
<title>n2&#45;&gt;n3</title>
<path fill="none" stroke="grey" d="M308.99,-915.36C328.21,-900.93 353.88,-881.63 376.2,-864.87"/>
<polygon fill="grey" stroke="grey" points="378.36,-867.62 384.25,-858.82 374.15,-862.03 378.36,-867.62"/>
</g>
<!-- n1 -->
<g id="node4" class="node">
<title>n1</title>
<ellipse fill="none" stroke="black" cx="113" cy="-1049.1" rx="96.75" ry="37.45"/>
<text text-anchor="middle" x="113" y="-1060.4" font-family="Times,serif" font-size="14.00">FLOWPOINT</text>
<text text-anchor="middle" x="113" y="-1045.4" font-family="Times,serif" font-size="14.00">nid=1</text>
<text text-anchor="middle" x="113" y="-1030.4" font-family="Times,serif" font-size="14.00">value= &#39;[&#39;stdlib&#39;]&#39;</text>
</g>
<!-- n1&#45;&gt;n2 -->
<g id="edge3" class="edge">
<title>n1&#45;&gt;n2</title>
<path fill="none" stroke="green" d="M161.3,-1016.59C186.18,-1000.36 216.17,-980.8 239.77,-965.39"/>
<polygon fill="green" stroke="green" points="241.7,-968.32 248.16,-959.92 237.87,-962.45 241.7,-968.32"/>
</g>
<!-- n0 -->
<g id="node5" class="node">
<title>n0</title>
<ellipse fill="none" stroke="black" cx="113" cy="-1166.84" rx="42.35" ry="26.74"/>
<text text-anchor="middle" x="113" y="-1170.64" font-family="Times,serif" font-size="14.00">file</text>
<text text-anchor="middle" x="113" y="-1155.64" font-family="Times,serif" font-size="14.00">nid=0</text>
</g>
<!-- n0&#45;&gt;n1 -->
<g id="edge4" class="edge">
<title>n0&#45;&gt;n1</title>
<path fill="none" stroke="grey" d="M113,-1139.87C113,-1127.32 113,-1111.86 113,-1097.33"/>
<polygon fill="grey" stroke="grey" points="116.5,-1096.96 113,-1086.96 109.5,-1096.96 116.5,-1096.96"/>
</g>
<!-- n8 -->
<g id="node6" class="node">
<title>n8</title>
<ellipse fill="none" stroke="black" cx="1367" cy="-827.2" rx="62.45" ry="37.45"/>
<text text-anchor="middle" x="1367" y="-838.5" font-family="Times,serif" font-size="14.00">NAME</text>
<text text-anchor="middle" x="1367" y="-823.5" font-family="Times,serif" font-size="14.00">nid=8</text>
<text text-anchor="middle" x="1367" y="-808.5" font-family="Times,serif" font-size="14.00">value= &#39;b&#39;</text>
</g>
<!-- n9 -->
<g id="node7" class="node">
<title>n9</title>
<ellipse fill="none" stroke="black" cx="1509" cy="-827.2" rx="62.45" ry="37.45"/>
<text text-anchor="middle" x="1509" y="-838.5" font-family="Times,serif" font-size="14.00">INT</text>
<text text-anchor="middle" x="1509" y="-823.5" font-family="Times,serif" font-size="14.00">nid=9</text>
<text text-anchor="middle" x="1509" y="-808.5" font-family="Times,serif" font-size="14.00">value= &#39;0&#39;</text>
</g>
<!-- n10 -->
<g id="node8" class="node">
<title>n10</title>
<ellipse fill="none" stroke="black" cx="1664" cy="-827.2" rx="74.91" ry="37.45"/>
<text text-anchor="middle" x="1664" y="-838.5" font-family="Times,serif" font-size="14.00">BLOCK_REF</text>
<text text-anchor="middle" x="1664" y="-823.5" font-family="Times,serif" font-size="14.00">nid=10</text>
<text text-anchor="middle" x="1664" y="-808.5" font-family="Times,serif" font-size="14.00">value= &#39;1&#39;</text>
</g>
<!-- n17 -->
<g id="node9" class="node">
<title>n17</title>
<ellipse fill="none" stroke="black" cx="1674" cy="-716.24" rx="67.35" ry="37.45"/>
<text text-anchor="middle" x="1674" y="-727.54" font-family="Times,serif" font-size="14.00">BLOCK</text>
<text text-anchor="middle" x="1674" y="-712.54" font-family="Times,serif" font-size="14.00">nid=17</text>
<text text-anchor="middle" x="1674" y="-697.54" font-family="Times,serif" font-size="14.00">block_id=1</text>
</g>
<!-- n10&#45;&gt;n17 -->
<g id="edge5" class="edge">
<title>n10&#45;&gt;n17</title>
<path fill="none" stroke="purple" d="M1667.36,-789.61C1668.11,-781.44 1668.91,-772.66 1669.7,-764.13"/>
<polygon fill="purple" stroke="purple" points="1673.21,-764.19 1670.63,-753.92 1666.23,-763.55 1673.21,-764.19"/>
</g>
<!-- n18 -->
<g id="node21" class="node">
<title>n18</title>
<ellipse fill="none" stroke="black" cx="1684" cy="-605.29" rx="61.54" ry="37.45"/>
<text text-anchor="middle" x="1684" y="-616.59" font-family="Times,serif" font-size="14.00">NAME</text>
<text text-anchor="middle" x="1684" y="-601.59" font-family="Times,serif" font-size="14.00">nid=18</text>
<text text-anchor="middle" x="1684" y="-586.59" font-family="Times,serif" font-size="14.00">value= &#39;a&#39;</text>
</g>
<!-- n17&#45;&gt;n18 -->
<g id="edge22" class="edge">
<title>n17&#45;&gt;n18</title>
<path fill="none" stroke="grey" d="M1677.36,-678.66C1678.11,-670.49 1678.91,-661.71 1679.7,-653.18"/>
<polygon fill="grey" stroke="grey" points="1683.21,-653.24 1680.63,-642.96 1676.23,-652.6 1683.21,-653.24"/>
</g>
<!-- n7 -->
<g id="node10" class="node">
<title>n7</title>
<ellipse fill="none" stroke="black" cx="1509" cy="-938.15" rx="72.66" ry="37.45"/>
<text text-anchor="middle" x="1509" y="-949.45" font-family="Times,serif" font-size="14.00">OPERATOR</text>
<text text-anchor="middle" x="1509" y="-934.45" font-family="Times,serif" font-size="14.00">nid=7</text>
<text text-anchor="middle" x="1509" y="-919.45" font-family="Times,serif" font-size="14.00">value= &#39;==&#39;</text>
</g>
<!-- n7&#45;&gt;n8 -->
<g id="edge7" class="edge">
<title>n7&#45;&gt;n8</title>
<path fill="none" stroke="grey" d="M1469.07,-906.51C1451.57,-893.08 1430.93,-877.25 1412.81,-863.35"/>
<polygon fill="grey" stroke="grey" points="1414.75,-860.42 1404.68,-857.11 1410.49,-865.97 1414.75,-860.42"/>
</g>
<!-- n7&#45;&gt;n9 -->
<g id="edge8" class="edge">
<title>n7&#45;&gt;n9</title>
<path fill="none" stroke="grey" d="M1509,-900.57C1509,-892.39 1509,-883.61 1509,-875.09"/>
<polygon fill="grey" stroke="grey" points="1512.5,-874.87 1509,-864.87 1505.5,-874.87 1512.5,-874.87"/>
</g>
<!-- n7&#45;&gt;n10 -->
<g id="edge6" class="edge">
<title>n7&#45;&gt;n10</title>
<path fill="none" stroke="green" d="M1551.35,-907.38C1570.41,-893.98 1593.07,-878.06 1613.05,-864.01"/>
<polygon fill="green" stroke="green" points="1615.26,-866.74 1621.43,-858.12 1611.23,-861.01 1615.26,-866.74"/>
</g>
<!-- n12 -->
<g id="node11" class="node">
<title>n12</title>
<ellipse fill="none" stroke="black" cx="1937" cy="-827.2" rx="74.91" ry="37.45"/>
<text text-anchor="middle" x="1937" y="-838.5" font-family="Times,serif" font-size="14.00">BLOCK_REF</text>
<text text-anchor="middle" x="1937" y="-823.5" font-family="Times,serif" font-size="14.00">nid=12</text>
<text text-anchor="middle" x="1937" y="-808.5" font-family="Times,serif" font-size="14.00">value= &#39;2&#39;</text>
</g>
<!-- n20 -->
<g id="node12" class="node">
<title>n20</title>
<ellipse fill="none" stroke="black" cx="1981" cy="-716.24" rx="67.35" ry="37.45"/>
<text text-anchor="middle" x="1981" y="-727.54" font-family="Times,serif" font-size="14.00">BLOCK</text>
<text text-anchor="middle" x="1981" y="-712.54" font-family="Times,serif" font-size="14.00">nid=20</text>
<text text-anchor="middle" x="1981" y="-697.54" font-family="Times,serif" font-size="14.00">block_id=2</text>
</g>
<!-- n12&#45;&gt;n20 -->
<g id="edge9" class="edge">
<title>n12&#45;&gt;n20</title>
<path fill="none" stroke="purple" d="M1951.53,-790.22C1955.1,-781.39 1958.96,-771.82 1962.68,-762.61"/>
<polygon fill="purple" stroke="purple" points="1965.99,-763.77 1966.49,-753.18 1959.5,-761.14 1965.99,-763.77"/>
</g>
<!-- n21 -->
<g id="node31" class="node">
<title>n21</title>
<ellipse fill="none" stroke="black" cx="2025" cy="-605.29" rx="48.58" ry="26.74"/>
<text text-anchor="middle" x="2025" y="-609.09" font-family="Times,serif" font-size="14.00">glom</text>
<text text-anchor="middle" x="2025" y="-594.09" font-family="Times,serif" font-size="14.00">nid=21</text>
</g>
<!-- n20&#45;&gt;n21 -->
<g id="edge34" class="edge">
<title>n20&#45;&gt;n21</title>
<path fill="none" stroke="grey" d="M1995.41,-679.57C2000.39,-667.23 2005.97,-653.42 2010.92,-641.15"/>
<polygon fill="grey" stroke="grey" points="2014.24,-642.27 2014.74,-631.69 2007.75,-639.65 2014.24,-642.27"/>
</g>
<!-- n11 -->
<g id="node13" class="node">
<title>n11</title>
<ellipse fill="none" stroke="black" cx="1925" cy="-938.15" rx="62.45" ry="37.45"/>
<text text-anchor="middle" x="1925" y="-949.45" font-family="Times,serif" font-size="14.00">INT</text>
<text text-anchor="middle" x="1925" y="-934.45" font-family="Times,serif" font-size="14.00">nid=11</text>
<text text-anchor="middle" x="1925" y="-919.45" font-family="Times,serif" font-size="14.00">value= &#39;1&#39;</text>
</g>
<!-- n11&#45;&gt;n12 -->
<g id="edge10" class="edge">
<title>n11&#45;&gt;n12</title>
<path fill="none" stroke="green" d="M1929.03,-900.57C1929.93,-892.39 1930.9,-883.61 1931.84,-875.09"/>
<polygon fill="green" stroke="green" points="1935.35,-875.19 1932.96,-864.87 1928.39,-874.43 1935.35,-875.19"/>
</g>
<!-- n6 -->
<g id="node14" class="node">
<title>n6</title>
<ellipse fill="none" stroke="black" cx="1509" cy="-1049.1" rx="50.41" ry="26.74"/>
<text text-anchor="middle" x="1509" y="-1052.9" font-family="Times,serif" font-size="14.00">FILTER</text>
<text text-anchor="middle" x="1509" y="-1037.9" font-family="Times,serif" font-size="14.00">nid=6</text>
</g>
<!-- n6&#45;&gt;n7 -->
<g id="edge11" class="edge">
<title>n6&#45;&gt;n7</title>
<path fill="none" stroke="grey" d="M1509,-1022.01C1509,-1011.19 1509,-998.29 1509,-985.94"/>
<polygon fill="grey" stroke="grey" points="1512.5,-985.74 1509,-975.74 1505.5,-985.74 1512.5,-985.74"/>
</g>
<!-- n6&#45;&gt;n11 -->
<g id="edge12" class="edge">
<title>n6&#45;&gt;n11</title>
<path fill="none" stroke="grey" d="M1558.02,-1043.16C1623.86,-1035.5 1743.83,-1017.93 1841,-983.63 1851.48,-979.93 1862.27,-975.09 1872.47,-969.98"/>
<polygon fill="grey" stroke="grey" points="1874.37,-972.93 1881.64,-965.23 1871.15,-966.72 1874.37,-972.93"/>
</g>
<!-- n5&#45;&gt;n6 -->
<g id="edge13" class="edge">
<title>n5&#45;&gt;n6</title>
<path fill="none" stroke="green" d="M1206.62,-408.13C1208.8,-413.61 1210.71,-419.3 1212,-424.86 1230.06,-502.57 1217,-524.51 1217,-604.29 1217,-828.2 1217,-828.2 1217,-828.2 1217,-905.09 1231.49,-937.48 1293,-983.63 1351.45,-1027.47 1387.22,-984.35 1455,-1011.63 1461.06,-1014.07 1467.14,-1017.26 1472.91,-1020.75"/>
<polygon fill="green" stroke="green" points="1471.39,-1023.93 1481.69,-1026.4 1475.17,-1018.04 1471.39,-1023.93"/>
</g>
<!-- n14 -->
<g id="node16" class="node">
<title>n14</title>
<ellipse fill="none" stroke="black" cx="605" cy="-494.34" rx="81.13" ry="37.45"/>
<text text-anchor="middle" x="605" y="-505.64" font-family="Times,serif" font-size="14.00">INT</text>
<text text-anchor="middle" x="605" y="-490.64" font-family="Times,serif" font-size="14.00">nid=14</text>
<text text-anchor="middle" x="605" y="-475.64" font-family="Times,serif" font-size="14.00">value= &#39;2740&#39;</text>
</g>
<!-- n15 -->
<g id="node17" class="node">
<title>n15</title>
<ellipse fill="none" stroke="black" cx="786" cy="-494.34" rx="81.13" ry="37.45"/>
<text text-anchor="middle" x="786" y="-505.64" font-family="Times,serif" font-size="14.00">INT</text>
<text text-anchor="middle" x="786" y="-490.64" font-family="Times,serif" font-size="14.00">nid=15</text>
<text text-anchor="middle" x="786" y="-475.64" font-family="Times,serif" font-size="14.00">value= &#39;5984&#39;</text>
</g>
<!-- n16 -->
<g id="node18" class="node">
<title>n16</title>
<ellipse fill="none" stroke="black" cx="978" cy="-494.34" rx="92.76" ry="37.45"/>
<text text-anchor="middle" x="978" y="-505.64" font-family="Times,serif" font-size="14.00">FLOWPOINT</text>
<text text-anchor="middle" x="978" y="-490.64" font-family="Times,serif" font-size="14.00">nid=16</text>
<text text-anchor="middle" x="978" y="-475.64" font-family="Times,serif" font-size="14.00">value= &#39;[&#39;a&#39;, &#39;b&#39;]&#39;</text>
</g>
<!-- n16&#45;&gt;n5 -->
<g id="edge14" class="edge">
<title>n16&#45;&gt;n5</title>
<path fill="none" stroke="red" d="M1013.82,-459.55C1029.46,-447.89 1048.16,-435.19 1066,-424.86 1080.18,-416.65 1095.87,-408.7 1111.16,-401.58"/>
<polygon fill="red" stroke="red" points="1112.98,-404.6 1120.62,-397.26 1110.07,-398.23 1112.98,-404.6"/>
</g>
<!-- n16&#45;&gt;n5 -->
<g id="edge15" class="edge">
<title>n16&#45;&gt;n5</title>
<path fill="none" stroke="red" d="M1026.78,-462.32C1044.46,-449.94 1064.73,-436.01 1084,-424.86 1095.83,-418.01 1108.69,-411.35 1121.24,-405.2"/>
<polygon fill="red" stroke="red" points="1122.82,-408.32 1130.29,-400.81 1119.77,-402.02 1122.82,-408.32"/>
</g>
<!-- n13&#45;&gt;n14 -->
<g id="edge17" class="edge">
<title>n13&#45;&gt;n14</title>
<path fill="none" stroke="grey" d="M753.64,-584.81C728.28,-569.55 692.36,-547.93 662.19,-529.76"/>
<polygon fill="grey" stroke="grey" points="663.81,-526.65 653.43,-524.49 660.2,-532.65 663.81,-526.65"/>
</g>
<!-- n13&#45;&gt;n15 -->
<g id="edge18" class="edge">
<title>n13&#45;&gt;n15</title>
<path fill="none" stroke="grey" d="M786,-578.19C786,-567.37 786,-554.48 786,-542.13"/>
<polygon fill="grey" stroke="grey" points="789.5,-541.93 786,-531.93 782.5,-541.93 789.5,-541.93"/>
</g>
<!-- n13&#45;&gt;n16 -->
<g id="edge16" class="edge">
<title>n13&#45;&gt;n16</title>
<path fill="none" stroke="green" d="M814.74,-583.57C822.49,-578.24 830.96,-572.65 839,-567.81 861.95,-554 887.81,-540.09 910.93,-528.21"/>
<polygon fill="green" stroke="green" points="912.67,-531.25 919.99,-523.59 909.49,-525.02 912.67,-531.25"/>
</g>
<!-- n19 -->
<g id="node20" class="node">
<title>n19</title>
<ellipse fill="none" stroke="black" cx="1704" cy="-494.34" rx="101.23" ry="37.45"/>
<text text-anchor="middle" x="1704" y="-505.64" font-family="Times,serif" font-size="14.00">FLOWPOINT</text>
<text text-anchor="middle" x="1704" y="-490.64" font-family="Times,serif" font-size="14.00">nid=19</text>
<text text-anchor="middle" x="1704" y="-475.64" font-family="Times,serif" font-size="14.00">value= &#39;[&#39;stdout&#39;]&#39;</text>
</g>
<!-- n18&#45;&gt;n19 -->
<g id="edge21" class="edge">
<title>n18&#45;&gt;n19</title>
<path fill="none" stroke="green" d="M1690.66,-568.01C1692.2,-559.65 1693.85,-550.63 1695.45,-541.9"/>
<polygon fill="green" stroke="green" points="1698.94,-542.3 1697.3,-531.83 1692.05,-541.03 1698.94,-542.3"/>
</g>
<!-- n22 -->
<g id="node22" class="node">
<title>n22</title>
<ellipse fill="none" stroke="black" cx="1939" cy="-494.34" rx="62.45" ry="37.45"/>
<text text-anchor="middle" x="1939" y="-505.64" font-family="Times,serif" font-size="14.00">NAME</text>
<text text-anchor="middle" x="1939" y="-490.64" font-family="Times,serif" font-size="14.00">nid=22</text>
<text text-anchor="middle" x="1939" y="-475.64" font-family="Times,serif" font-size="14.00">value= &#39;b&#39;</text>
</g>
<!-- n24 -->
<g id="node23" class="node">
<title>n24</title>
<ellipse fill="none" stroke="black" cx="2283" cy="-371.38" rx="61.54" ry="37.45"/>
<text text-anchor="middle" x="2283" y="-382.68" font-family="Times,serif" font-size="14.00">NAME</text>
<text text-anchor="middle" x="2283" y="-367.68" font-family="Times,serif" font-size="14.00">nid=24</text>
<text text-anchor="middle" x="2283" y="-352.68" font-family="Times,serif" font-size="14.00">value= &#39;a&#39;</text>
</g>
<!-- n27 -->
<g id="node24" class="node">
<title>n27</title>
<ellipse fill="none" stroke="black" cx="2431" cy="-149.48" rx="61.54" ry="37.45"/>
<text text-anchor="middle" x="2431" y="-160.78" font-family="Times,serif" font-size="14.00">NAME</text>
<text text-anchor="middle" x="2431" y="-145.78" font-family="Times,serif" font-size="14.00">nid=27</text>
<text text-anchor="middle" x="2431" y="-130.78" font-family="Times,serif" font-size="14.00">value= &#39;a&#39;</text>
</g>
<!-- n28 -->
<g id="node25" class="node">
<title>n28</title>
<ellipse fill="none" stroke="black" cx="2573" cy="-149.48" rx="62.45" ry="37.45"/>
<text text-anchor="middle" x="2573" y="-160.78" font-family="Times,serif" font-size="14.00">NAME</text>
<text text-anchor="middle" x="2573" y="-145.78" font-family="Times,serif" font-size="14.00">nid=28</text>
<text text-anchor="middle" x="2573" y="-130.78" font-family="Times,serif" font-size="14.00">value= &#39;b&#39;</text>
</g>
<!-- n26 -->
<g id="node26" class="node">
<title>n26</title>
<ellipse fill="none" stroke="black" cx="2501" cy="-260.43" rx="70.01" ry="37.45"/>
<text text-anchor="middle" x="2501" y="-271.73" font-family="Times,serif" font-size="14.00">OPERATOR</text>
<text text-anchor="middle" x="2501" y="-256.73" font-family="Times,serif" font-size="14.00">nid=26</text>
<text text-anchor="middle" x="2501" y="-241.73" font-family="Times,serif" font-size="14.00">value= &#39;/&#39;</text>
</g>
<!-- n26&#45;&gt;n27 -->
<g id="edge23" class="edge">
<title>n26&#45;&gt;n27</title>
<path fill="none" stroke="grey" d="M2478.66,-224.66C2472.22,-214.63 2465.12,-203.58 2458.41,-193.14"/>
<polygon fill="grey" stroke="grey" points="2461.24,-191.07 2452.89,-184.55 2455.35,-194.85 2461.24,-191.07"/>
</g>
<!-- n26&#45;&gt;n28 -->
<g id="edge24" class="edge">
<title>n26&#45;&gt;n28</title>
<path fill="none" stroke="grey" d="M2523.78,-224.96C2530.41,-214.92 2537.74,-203.84 2544.66,-193.35"/>
<polygon fill="grey" stroke="grey" points="2547.77,-195 2550.37,-184.73 2541.93,-191.14 2547.77,-195"/>
</g>
<!-- n29 -->
<g id="node27" class="node">
<title>n29</title>
<ellipse fill="none" stroke="black" cx="2713" cy="-260.43" rx="62.45" ry="37.45"/>
<text text-anchor="middle" x="2713" y="-271.73" font-family="Times,serif" font-size="14.00">NAME</text>
<text text-anchor="middle" x="2713" y="-256.73" font-family="Times,serif" font-size="14.00">nid=29</text>
<text text-anchor="middle" x="2713" y="-241.73" font-family="Times,serif" font-size="14.00">value= &#39;b&#39;</text>
</g>
<!-- n25 -->
<g id="node28" class="node">
<title>n25</title>
<ellipse fill="none" stroke="black" cx="2501" cy="-371.38" rx="70.01" ry="37.45"/>
<text text-anchor="middle" x="2501" y="-382.68" font-family="Times,serif" font-size="14.00">OPERATOR</text>
<text text-anchor="middle" x="2501" y="-367.68" font-family="Times,serif" font-size="14.00">nid=25</text>
<text text-anchor="middle" x="2501" y="-352.68" font-family="Times,serif" font-size="14.00">value= &#39;*&#39;</text>
</g>
<!-- n25&#45;&gt;n26 -->
<g id="edge25" class="edge">
<title>n25&#45;&gt;n26</title>
<path fill="none" stroke="grey" d="M2501,-333.8C2501,-325.63 2501,-316.85 2501,-308.32"/>
<polygon fill="grey" stroke="grey" points="2504.5,-308.1 2501,-298.1 2497.5,-308.1 2504.5,-308.1"/>
</g>
<!-- n25&#45;&gt;n29 -->
<g id="edge26" class="edge">
<title>n25&#45;&gt;n29</title>
<path fill="none" stroke="grey" d="M2556.88,-348.44C2584.56,-336.9 2618.13,-321.84 2647,-305.91 2652.93,-302.63 2659.02,-298.98 2664.97,-295.21"/>
<polygon fill="grey" stroke="grey" points="2667.08,-298.02 2673.58,-289.65 2663.28,-292.14 2667.08,-298.02"/>
</g>
<!-- n23 -->
<g id="node29" class="node">
<title>n23</title>
<ellipse fill="none" stroke="black" cx="2293" cy="-494.34" rx="70.01" ry="37.45"/>
<text text-anchor="middle" x="2293" y="-505.64" font-family="Times,serif" font-size="14.00">OPERATOR</text>
<text text-anchor="middle" x="2293" y="-490.64" font-family="Times,serif" font-size="14.00">nid=23</text>
<text text-anchor="middle" x="2293" y="-475.64" font-family="Times,serif" font-size="14.00">value= &#39;&#45;&#39;</text>
</g>
<!-- n23&#45;&gt;n24 -->
<g id="edge27" class="edge">
<title>n23&#45;&gt;n24</title>
<path fill="none" stroke="grey" d="M2289.97,-456.72C2288.99,-444.88 2287.89,-431.58 2286.86,-419.11"/>
<polygon fill="grey" stroke="grey" points="2290.33,-418.55 2286.02,-408.88 2283.35,-419.13 2290.33,-418.55"/>
</g>
<!-- n23&#45;&gt;n25 -->
<g id="edge28" class="edge">
<title>n23&#45;&gt;n25</title>
<path fill="none" stroke="grey" d="M2340.28,-466.7C2366.01,-452.12 2398.34,-433.65 2427,-416.86 2433.31,-413.16 2439.91,-409.26 2446.45,-405.36"/>
<polygon fill="grey" stroke="grey" points="2448.52,-408.2 2455.31,-400.07 2444.93,-402.19 2448.52,-408.2"/>
</g>
<!-- n30 -->
<g id="node30" class="node">
<title>n30</title>
<ellipse fill="none" stroke="black" cx="2112" cy="-494.34" rx="92.76" ry="37.45"/>
<text text-anchor="middle" x="2112" y="-505.64" font-family="Times,serif" font-size="14.00">FLOWPOINT</text>
<text text-anchor="middle" x="2112" y="-490.64" font-family="Times,serif" font-size="14.00">nid=30</text>
<text text-anchor="middle" x="2112" y="-475.64" font-family="Times,serif" font-size="14.00">value= &#39;[&#39;a&#39;, &#39;b&#39;]&#39;</text>
</g>
<!-- n30&#45;&gt;n5 -->
<g id="edge29" class="edge">
<title>n30&#45;&gt;n5</title>
<path fill="none" stroke="red" d="M2066.71,-461.44C2047.57,-447.62 2024.43,-432.82 2001,-424.86 1871.95,-381.02 1479.34,-373.37 1290.93,-372.32"/>
<polygon fill="red" stroke="red" points="1290.76,-368.82 1280.74,-372.27 1290.72,-375.82 1290.76,-368.82"/>
</g>
<!-- n30&#45;&gt;n5 -->
<g id="edge30" class="edge">
<title>n30&#45;&gt;n5</title>
<path fill="none" stroke="red" d="M2079.81,-458.93C2062.77,-445.86 2041.01,-432.34 2019,-424.86 1887.56,-380.21 1482.7,-373.1 1290.81,-372.27"/>
<polygon fill="red" stroke="red" points="1290.73,-368.77 1280.72,-372.23 1290.71,-375.77 1290.73,-368.77"/>
</g>
<!-- n21&#45;&gt;n22 -->
<g id="edge32" class="edge">
<title>n21&#45;&gt;n22</title>
<path fill="none" stroke="grey" d="M2006.13,-580.38C1996.03,-567.59 1983.31,-551.47 1971.67,-536.72"/>
<polygon fill="grey" stroke="grey" points="1974.27,-534.38 1965.33,-528.7 1968.78,-538.71 1974.27,-534.38"/>
</g>
<!-- n21&#45;&gt;n23 -->
<g id="edge33" class="edge">
<title>n21&#45;&gt;n23</title>
<path fill="none" stroke="grey" d="M2068.42,-592.83C2108.44,-581.59 2169.02,-562.8 2219,-539.81 2226.09,-536.55 2233.35,-532.78 2240.42,-528.84"/>
<polygon fill="grey" stroke="grey" points="2242.32,-531.79 2249.26,-523.79 2238.84,-525.72 2242.32,-531.79"/>
</g>
<!-- n21&#45;&gt;n30 -->
<g id="edge31" class="edge">
<title>n21&#45;&gt;n30</title>
<path fill="none" stroke="green" d="M2044.09,-580.38C2053.97,-568.01 2066.33,-552.54 2077.78,-538.19"/>
<polygon fill="green" stroke="green" points="2080.53,-540.36 2084.03,-530.36 2075.06,-535.99 2080.53,-540.36"/>
</g>
</g>
</svg>
