<?xml version="1.0" encoding="UTF-8" standalone="no"?>
<!DOCTYPE svg PUBLIC "-//W3C//DTD SVG 1.1//EN"
 "http://www.w3.org/Graphics/SVG/1.1/DTD/svg11.dtd">
<!-- Generated by graphviz version 2.43.0 (0)
 -->
<!-- Title: G Pages: 1 -->
<svg width="1450pt" height="1761pt"
 viewBox="0.00 0.00 1449.87 1761.45" xmlns="http://www.w3.org/2000/svg" xmlns:xlink="http://www.w3.org/1999/xlink">
<g id="graph0" class="graph" transform="scale(1 1) rotate(0) translate(4 1757.45)">
<title>G</title>
<polygon fill="white" stroke="transparent" points="-4,4 -4,-1757.45 1445.87,-1757.45 1445.87,4 -4,4"/>
<!-- n2 -->
<g id="node1" class="node">
<title>n2</title>
<ellipse fill="none" stroke="black" cx="459.93" cy="-1506.49" rx="84.29" ry="37.45"/>
<text text-anchor="middle" x="459.93" y="-1517.79" font-family="Times,serif" font-size="14.00">id=NAME</text>
<text text-anchor="middle" x="459.93" y="-1502.79" font-family="Times,serif" font-size="14.00">nid=2</text>
<text text-anchor="middle" x="459.93" y="-1487.79" font-family="Times,serif" font-size="14.00">value= &#39;stdlib&#39;</text>
</g>
<!-- n4 -->
<g id="node2" class="node">
<title>n4</title>
<ellipse fill="none" stroke="black" cx="633.93" cy="-1380.54" rx="92.76" ry="37.45"/>
<text text-anchor="middle" x="633.93" y="-1391.84" font-family="Times,serif" font-size="14.00">id=BLOCK_REF</text>
<text text-anchor="middle" x="633.93" y="-1376.84" font-family="Times,serif" font-size="14.00">nid=4</text>
<text text-anchor="middle" x="633.93" y="-1361.84" font-family="Times,serif" font-size="14.00">value= &#39;0&#39;</text>
</g>
<!-- n5 -->
<g id="node3" class="node">
<title>n5</title>
<ellipse fill="none" stroke="black" cx="633.93" cy="-1265.19" rx="66.44" ry="26.74"/>
<text text-anchor="middle" x="633.93" y="-1268.99" font-family="Times,serif" font-size="14.00">id=BLOCK</text>
<text text-anchor="middle" x="633.93" y="-1253.99" font-family="Times,serif" font-size="14.00">nid=5</text>
</g>
<!-- n4&#45;&gt;n5 -->
<g id="edge1" class="edge">
<title>n4&#45;&gt;n5</title>
<path fill="none" stroke="black" d="M633.93,-1343.05C633.93,-1329.98 633.93,-1315.26 633.93,-1302.22"/>
<polygon fill="black" stroke="black" points="637.43,-1302.19 633.93,-1292.19 630.43,-1302.19 637.43,-1302.19"/>
<text text-anchor="middle" x="652.93" y="-1313.86" font-family="Times,serif" font-size="14.00">block</text>
</g>
<!-- n6 -->
<g id="node22" class="node">
<title>n6</title>
<ellipse fill="none" stroke="black" cx="557.93" cy="-1160.45" rx="77.15" ry="26.74"/>
<text text-anchor="middle" x="557.93" y="-1164.25" font-family="Times,serif" font-size="14.00">id=flowpoint</text>
<text text-anchor="middle" x="557.93" y="-1149.25" font-family="Times,serif" font-size="14.00">nid=6</text>
</g>
<!-- n5&#45;&gt;n6 -->
<g id="edge26" class="edge">
<title>n5&#45;&gt;n6</title>
<path fill="none" stroke="black" d="M615.54,-1239.32C605.69,-1226.01 593.44,-1209.44 582.76,-1195.01"/>
<polygon fill="black" stroke="black" points="585.45,-1192.76 576.69,-1186.81 579.82,-1196.93 585.45,-1192.76"/>
<text text-anchor="middle" x="616.93" y="-1209.12" font-family="Times,serif" font-size="14.00">data</text>
</g>
<!-- n20 -->
<g id="node28" class="node">
<title>n20</title>
<ellipse fill="none" stroke="black" cx="888.93" cy="-1160.45" rx="54.39" ry="26.74"/>
<text text-anchor="middle" x="888.93" y="-1164.25" font-family="Times,serif" font-size="14.00">id=glom</text>
<text text-anchor="middle" x="888.93" y="-1149.25" font-family="Times,serif" font-size="14.00">nid=20</text>
</g>
<!-- n5&#45;&gt;n20 -->
<g id="edge27" class="edge">
<title>n5&#45;&gt;n20</title>
<path fill="none" stroke="black" d="M679.82,-1245.7C724.39,-1227.74 791.94,-1200.53 838.12,-1181.92"/>
<polygon fill="black" stroke="black" points="839.67,-1185.07 847.63,-1178.09 837.05,-1178.58 839.67,-1185.07"/>
<text text-anchor="middle" x="792.93" y="-1209.12" font-family="Times,serif" font-size="14.00">data</text>
</g>
<!-- n3 -->
<g id="node4" class="node">
<title>n3</title>
<ellipse fill="none" stroke="black" cx="633.93" cy="-1506.49" rx="71.34" ry="26.74"/>
<text text-anchor="middle" x="633.93" y="-1510.29" font-family="Times,serif" font-size="14.00">id=INVOKE</text>
<text text-anchor="middle" x="633.93" y="-1495.29" font-family="Times,serif" font-size="14.00">nid=3</text>
</g>
<!-- n3&#45;&gt;n4 -->
<g id="edge2" class="edge">
<title>n3&#45;&gt;n4</title>
<path fill="none" stroke="black" d="M633.93,-1479.51C633.93,-1464.81 633.93,-1445.98 633.93,-1428.76"/>
<polygon fill="black" stroke="black" points="637.43,-1428.3 633.93,-1418.3 630.43,-1428.3 637.43,-1428.3"/>
<text text-anchor="middle" x="649.93" y="-1439.81" font-family="Times,serif" font-size="14.00">data</text>
</g>
<!-- n1 -->
<g id="node5" class="node">
<title>n1</title>
<ellipse fill="none" stroke="black" cx="486.93" cy="-1621.84" rx="77.15" ry="26.74"/>
<text text-anchor="middle" x="486.93" y="-1625.64" font-family="Times,serif" font-size="14.00">id=flowpoint</text>
<text text-anchor="middle" x="486.93" y="-1610.64" font-family="Times,serif" font-size="14.00">nid=1</text>
</g>
<!-- n1&#45;&gt;n2 -->
<g id="edge4" class="edge">
<title>n1&#45;&gt;n2</title>
<path fill="none" stroke="black" d="M480.74,-1594.83C477.86,-1582.74 474.34,-1567.97 471.02,-1554.05"/>
<polygon fill="black" stroke="black" points="474.38,-1553.03 468.66,-1544.11 467.57,-1554.65 474.38,-1553.03"/>
<text text-anchor="middle" x="491.93" y="-1565.77" font-family="Times,serif" font-size="14.00">data</text>
</g>
<!-- n1&#45;&gt;n3 -->
<g id="edge3" class="edge">
<title>n1&#45;&gt;n3</title>
<path fill="none" stroke="black" d="M517.75,-1597.08C540.44,-1579.58 571.44,-1555.68 595.71,-1536.96"/>
<polygon fill="black" stroke="black" points="597.88,-1539.71 603.66,-1530.83 593.6,-1534.17 597.88,-1539.71"/>
<text text-anchor="middle" x="576.43" y="-1565.77" font-family="Times,serif" font-size="14.00">flow</text>
</g>
<!-- n0 -->
<g id="node6" class="node">
<title>n0</title>
<ellipse fill="none" stroke="black" cx="486.93" cy="-1726.58" rx="45.92" ry="26.74"/>
<text text-anchor="middle" x="486.93" y="-1730.38" font-family="Times,serif" font-size="14.00">id=file</text>
<text text-anchor="middle" x="486.93" y="-1715.38" font-family="Times,serif" font-size="14.00">nid=0</text>
</g>
<!-- n0&#45;&gt;n1 -->
<g id="edge5" class="edge">
<title>n0&#45;&gt;n1</title>
<path fill="none" stroke="black" d="M486.93,-1699.65C486.93,-1687.36 486.93,-1672.47 486.93,-1659.09"/>
<polygon fill="black" stroke="black" points="490.43,-1658.75 486.93,-1648.75 483.43,-1658.75 490.43,-1658.75"/>
<text text-anchor="middle" x="502.93" y="-1670.51" font-family="Times,serif" font-size="14.00">data</text>
</g>
<!-- n7 -->
<g id="node7" class="node">
<title>n7</title>
<ellipse fill="none" stroke="black" cx="365.93" cy="-1045.1" rx="62.87" ry="37.45"/>
<text text-anchor="middle" x="365.93" y="-1056.4" font-family="Times,serif" font-size="14.00">id=NAME</text>
<text text-anchor="middle" x="365.93" y="-1041.4" font-family="Times,serif" font-size="14.00">nid=7</text>
<text text-anchor="middle" x="365.93" y="-1026.4" font-family="Times,serif" font-size="14.00">value= &#39;a&#39;</text>
</g>
<!-- n8 -->
<g id="node8" class="node">
<title>n8</title>
<ellipse fill="none" stroke="black" cx="509.93" cy="-1045.1" rx="62.87" ry="37.45"/>
<text text-anchor="middle" x="509.93" y="-1056.4" font-family="Times,serif" font-size="14.00">id=NAME</text>
<text text-anchor="middle" x="509.93" y="-1041.4" font-family="Times,serif" font-size="14.00">nid=8</text>
<text text-anchor="middle" x="509.93" y="-1026.4" font-family="Times,serif" font-size="14.00">value= &#39;b&#39;</text>
</g>
<!-- n12 -->
<g id="node9" class="node">
<title>n12</title>
<ellipse fill="none" stroke="black" cx="62.93" cy="-667.24" rx="62.87" ry="37.45"/>
<text text-anchor="middle" x="62.93" y="-678.54" font-family="Times,serif" font-size="14.00">id=NAME</text>
<text text-anchor="middle" x="62.93" y="-663.54" font-family="Times,serif" font-size="14.00">nid=12</text>
<text text-anchor="middle" x="62.93" y="-648.54" font-family="Times,serif" font-size="14.00">value= &#39;b&#39;</text>
</g>
<!-- n13 -->
<g id="node10" class="node">
<title>n13</title>
<ellipse fill="none" stroke="black" cx="231.93" cy="-667.24" rx="88.28" ry="37.45"/>
<text text-anchor="middle" x="231.93" y="-678.54" font-family="Times,serif" font-size="14.00">id=OPERATOR</text>
<text text-anchor="middle" x="231.93" y="-663.54" font-family="Times,serif" font-size="14.00">nid=13</text>
<text text-anchor="middle" x="231.93" y="-648.54" font-family="Times,serif" font-size="14.00">value= &#39;==&#39;</text>
</g>
<!-- n14 -->
<g id="node11" class="node">
<title>n14</title>
<ellipse fill="none" stroke="black" cx="400.93" cy="-667.24" rx="62.45" ry="37.45"/>
<text text-anchor="middle" x="400.93" y="-678.54" font-family="Times,serif" font-size="14.00">id=INT</text>
<text text-anchor="middle" x="400.93" y="-663.54" font-family="Times,serif" font-size="14.00">nid=14</text>
<text text-anchor="middle" x="400.93" y="-648.54" font-family="Times,serif" font-size="14.00">value= &#39;0&#39;</text>
</g>
<!-- n11 -->
<g id="node12" class="node">
<title>n11</title>
<ellipse fill="none" stroke="black" cx="294.93" cy="-793.2" rx="73.58" ry="26.74"/>
<text text-anchor="middle" x="294.93" y="-797" font-family="Times,serif" font-size="14.00">id=equation</text>
<text text-anchor="middle" x="294.93" y="-782" font-family="Times,serif" font-size="14.00">nid=11</text>
</g>
<!-- n11&#45;&gt;n12 -->
<g id="edge6" class="edge">
<title>n11&#45;&gt;n12</title>
<path fill="none" stroke="black" d="M254.52,-770.61C216.79,-750.44 160.15,-720.18 118.23,-697.79"/>
<polygon fill="black" stroke="black" points="119.72,-694.62 109.25,-692.99 116.42,-700.79 119.72,-694.62"/>
<text text-anchor="middle" x="208.93" y="-726.52" font-family="Times,serif" font-size="14.00">data</text>
</g>
<!-- n11&#45;&gt;n13 -->
<g id="edge7" class="edge">
<title>n11&#45;&gt;n13</title>
<path fill="none" stroke="black" d="M281.88,-766.51C274.08,-751.18 263.96,-731.26 254.87,-713.37"/>
<polygon fill="black" stroke="black" points="257.88,-711.56 250.22,-704.23 251.64,-714.73 257.88,-711.56"/>
<text text-anchor="middle" x="283.93" y="-726.52" font-family="Times,serif" font-size="14.00">data</text>
</g>
<!-- n11&#45;&gt;n14 -->
<g id="edge8" class="edge">
<title>n11&#45;&gt;n14</title>
<path fill="none" stroke="black" d="M316.13,-767.41C330.47,-750.65 349.73,-728.12 366.27,-708.77"/>
<polygon fill="black" stroke="black" points="369.1,-710.85 372.94,-700.98 363.78,-706.3 369.1,-710.85"/>
<text text-anchor="middle" x="370.93" y="-726.52" font-family="Times,serif" font-size="14.00">data</text>
</g>
<!-- n15 -->
<g id="node13" class="node">
<title>n15</title>
<ellipse fill="none" stroke="black" cx="536.93" cy="-793.2" rx="92.76" ry="37.45"/>
<text text-anchor="middle" x="536.93" y="-804.5" font-family="Times,serif" font-size="14.00">id=BLOCK_REF</text>
<text text-anchor="middle" x="536.93" y="-789.5" font-family="Times,serif" font-size="14.00">nid=15</text>
<text text-anchor="middle" x="536.93" y="-774.5" font-family="Times,serif" font-size="14.00">value= &#39;1&#39;</text>
</g>
<!-- n26 -->
<g id="node14" class="node">
<title>n26</title>
<ellipse fill="none" stroke="black" cx="547.93" cy="-667.24" rx="66.44" ry="26.74"/>
<text text-anchor="middle" x="547.93" y="-671.04" font-family="Times,serif" font-size="14.00">id=BLOCK</text>
<text text-anchor="middle" x="547.93" y="-656.04" font-family="Times,serif" font-size="14.00">nid=26</text>
</g>
<!-- n15&#45;&gt;n26 -->
<g id="edge9" class="edge">
<title>n15&#45;&gt;n26</title>
<path fill="none" stroke="black" d="M540.17,-755.68C541.61,-739.51 543.29,-720.54 544.72,-704.42"/>
<polygon fill="black" stroke="black" points="548.22,-704.55 545.62,-694.28 541.25,-703.94 548.22,-704.55"/>
<text text-anchor="middle" x="562.93" y="-726.52" font-family="Times,serif" font-size="14.00">block</text>
</g>
<!-- n27 -->
<g id="node31" class="node">
<title>n27</title>
<ellipse fill="none" stroke="black" cx="547.93" cy="-541.29" rx="62.87" ry="37.45"/>
<text text-anchor="middle" x="547.93" y="-552.59" font-family="Times,serif" font-size="14.00">id=NAME</text>
<text text-anchor="middle" x="547.93" y="-537.59" font-family="Times,serif" font-size="14.00">nid=27</text>
<text text-anchor="middle" x="547.93" y="-522.59" font-family="Times,serif" font-size="14.00">value= &#39;a&#39;</text>
</g>
<!-- n26&#45;&gt;n27 -->
<g id="edge30" class="edge">
<title>n26&#45;&gt;n27</title>
<path fill="none" stroke="black" d="M547.93,-640.26C547.93,-625.56 547.93,-606.73 547.93,-589.51"/>
<polygon fill="black" stroke="black" points="551.43,-589.05 547.93,-579.05 544.43,-589.05 551.43,-589.05"/>
<text text-anchor="middle" x="563.93" y="-600.57" font-family="Times,serif" font-size="14.00">data</text>
</g>
<!-- n10 -->
<g id="node15" class="node">
<title>n10</title>
<ellipse fill="none" stroke="black" cx="536.93" cy="-919.15" rx="63.78" ry="26.74"/>
<text text-anchor="middle" x="536.93" y="-922.95" font-family="Times,serif" font-size="14.00">id=twople</text>
<text text-anchor="middle" x="536.93" y="-907.95" font-family="Times,serif" font-size="14.00">nid=10</text>
</g>
<!-- n10&#45;&gt;n11 -->
<g id="edge10" class="edge">
<title>n10&#45;&gt;n11</title>
<path fill="none" stroke="black" d="M497.51,-897.96C456.04,-876.72 390.63,-843.21 345.41,-820.05"/>
<polygon fill="black" stroke="black" points="346.86,-816.86 336.36,-815.42 343.67,-823.09 346.86,-816.86"/>
<text text-anchor="middle" x="446.93" y="-852.47" font-family="Times,serif" font-size="14.00">data</text>
</g>
<!-- n10&#45;&gt;n15 -->
<g id="edge11" class="edge">
<title>n10&#45;&gt;n15</title>
<path fill="none" stroke="black" d="M536.93,-892.17C536.93,-877.47 536.93,-858.64 536.93,-841.42"/>
<polygon fill="black" stroke="black" points="540.43,-840.96 536.93,-830.96 533.43,-840.96 540.43,-840.96"/>
<text text-anchor="middle" x="552.93" y="-852.47" font-family="Times,serif" font-size="14.00">data</text>
</g>
<!-- n18 -->
<g id="node16" class="node">
<title>n18</title>
<ellipse fill="none" stroke="black" cx="720.93" cy="-667.24" rx="62.45" ry="37.45"/>
<text text-anchor="middle" x="720.93" y="-678.54" font-family="Times,serif" font-size="14.00">id=INT</text>
<text text-anchor="middle" x="720.93" y="-663.54" font-family="Times,serif" font-size="14.00">nid=18</text>
<text text-anchor="middle" x="720.93" y="-648.54" font-family="Times,serif" font-size="14.00">value= &#39;1&#39;</text>
</g>
<!-- n17 -->
<g id="node17" class="node">
<title>n17</title>
<ellipse fill="none" stroke="black" cx="720.93" cy="-793.2" rx="73.58" ry="26.74"/>
<text text-anchor="middle" x="720.93" y="-797" font-family="Times,serif" font-size="14.00">id=equation</text>
<text text-anchor="middle" x="720.93" y="-782" font-family="Times,serif" font-size="14.00">nid=17</text>
</g>
<!-- n17&#45;&gt;n18 -->
<g id="edge12" class="edge">
<title>n17&#45;&gt;n18</title>
<path fill="none" stroke="black" d="M720.93,-766.21C720.93,-751.51 720.93,-732.68 720.93,-715.47"/>
<polygon fill="black" stroke="black" points="724.43,-715.01 720.93,-705.01 717.43,-715.01 724.43,-715.01"/>
<text text-anchor="middle" x="736.93" y="-726.52" font-family="Times,serif" font-size="14.00">data</text>
</g>
<!-- n19 -->
<g id="node18" class="node">
<title>n19</title>
<ellipse fill="none" stroke="black" cx="904.93" cy="-793.2" rx="92.76" ry="37.45"/>
<text text-anchor="middle" x="904.93" y="-804.5" font-family="Times,serif" font-size="14.00">id=BLOCK_REF</text>
<text text-anchor="middle" x="904.93" y="-789.5" font-family="Times,serif" font-size="14.00">nid=19</text>
<text text-anchor="middle" x="904.93" y="-774.5" font-family="Times,serif" font-size="14.00">value= &#39;2&#39;</text>
</g>
<!-- n30 -->
<g id="node19" class="node">
<title>n30</title>
<ellipse fill="none" stroke="black" cx="904.93" cy="-667.24" rx="66.44" ry="26.74"/>
<text text-anchor="middle" x="904.93" y="-671.04" font-family="Times,serif" font-size="14.00">id=BLOCK</text>
<text text-anchor="middle" x="904.93" y="-656.04" font-family="Times,serif" font-size="14.00">nid=30</text>
</g>
<!-- n19&#45;&gt;n30 -->
<g id="edge13" class="edge">
<title>n19&#45;&gt;n30</title>
<path fill="none" stroke="black" d="M904.93,-755.68C904.93,-739.51 904.93,-720.54 904.93,-704.42"/>
<polygon fill="black" stroke="black" points="908.43,-704.28 904.93,-694.28 901.43,-704.28 908.43,-704.28"/>
<text text-anchor="middle" x="923.93" y="-726.52" font-family="Times,serif" font-size="14.00">block</text>
</g>
<!-- n31 -->
<g id="node46" class="node">
<title>n31</title>
<ellipse fill="none" stroke="black" cx="904.93" cy="-541.29" rx="54.39" ry="26.74"/>
<text text-anchor="middle" x="904.93" y="-545.09" font-family="Times,serif" font-size="14.00">id=glom</text>
<text text-anchor="middle" x="904.93" y="-530.09" font-family="Times,serif" font-size="14.00">nid=31</text>
</g>
<!-- n30&#45;&gt;n31 -->
<g id="edge45" class="edge">
<title>n30&#45;&gt;n31</title>
<path fill="none" stroke="black" d="M904.93,-640.26C904.93,-622.33 904.93,-598.24 904.93,-578.44"/>
<polygon fill="black" stroke="black" points="908.43,-578.24 904.93,-568.24 901.43,-578.24 908.43,-578.24"/>
<text text-anchor="middle" x="920.93" y="-600.57" font-family="Times,serif" font-size="14.00">data</text>
</g>
<!-- n16 -->
<g id="node20" class="node">
<title>n16</title>
<ellipse fill="none" stroke="black" cx="720.93" cy="-919.15" rx="63.78" ry="26.74"/>
<text text-anchor="middle" x="720.93" y="-922.95" font-family="Times,serif" font-size="14.00">id=twople</text>
<text text-anchor="middle" x="720.93" y="-907.95" font-family="Times,serif" font-size="14.00">nid=16</text>
</g>
<!-- n16&#45;&gt;n17 -->
<g id="edge14" class="edge">
<title>n16&#45;&gt;n17</title>
<path fill="none" stroke="black" d="M720.93,-892.17C720.93,-874.23 720.93,-850.15 720.93,-830.35"/>
<polygon fill="black" stroke="black" points="724.43,-830.15 720.93,-820.15 717.43,-830.15 724.43,-830.15"/>
<text text-anchor="middle" x="736.93" y="-852.47" font-family="Times,serif" font-size="14.00">data</text>
</g>
<!-- n16&#45;&gt;n19 -->
<g id="edge15" class="edge">
<title>n16&#45;&gt;n19</title>
<path fill="none" stroke="black" d="M753.83,-895.99C780.38,-878.1 818.32,-852.55 849.54,-831.51"/>
<polygon fill="black" stroke="black" points="851.81,-834.2 858.15,-825.71 847.9,-828.4 851.81,-834.2"/>
<text text-anchor="middle" x="840.93" y="-852.47" font-family="Times,serif" font-size="14.00">data</text>
</g>
<!-- n9 -->
<g id="node21" class="node">
<title>n9</title>
<ellipse fill="none" stroke="black" cx="644.93" cy="-1045.1" rx="54.39" ry="26.74"/>
<text text-anchor="middle" x="644.93" y="-1048.9" font-family="Times,serif" font-size="14.00">id=filter</text>
<text text-anchor="middle" x="644.93" y="-1033.9" font-family="Times,serif" font-size="14.00">nid=9</text>
</g>
<!-- n9&#45;&gt;n10 -->
<g id="edge16" class="edge">
<title>n9&#45;&gt;n10</title>
<path fill="none" stroke="black" d="M624.11,-1020.2C607.37,-1000.99 583.68,-973.81 565.22,-952.62"/>
<polygon fill="black" stroke="black" points="567.64,-950.06 558.43,-944.82 562.36,-954.66 567.64,-950.06"/>
<text text-anchor="middle" x="613.93" y="-978.43" font-family="Times,serif" font-size="14.00">data</text>
</g>
<!-- n9&#45;&gt;n16 -->
<g id="edge17" class="edge">
<title>n9&#45;&gt;n16</title>
<path fill="none" stroke="black" d="M660.31,-1019.02C671.72,-1000.41 687.41,-974.82 699.97,-954.34"/>
<polygon fill="black" stroke="black" points="703.07,-955.98 705.31,-945.62 697.1,-952.32 703.07,-955.98"/>
<text text-anchor="middle" x="703.93" y="-978.43" font-family="Times,serif" font-size="14.00">data</text>
</g>
<!-- n6&#45;&gt;n7 -->
<g id="edge19" class="edge">
<title>n6&#45;&gt;n7</title>
<path fill="none" stroke="black" d="M520,-1137.06C491.03,-1119.95 450.76,-1096.18 418.66,-1077.23"/>
<polygon fill="black" stroke="black" points="420.23,-1074.09 409.83,-1072.02 416.67,-1080.12 420.23,-1074.09"/>
<text text-anchor="middle" x="495.93" y="-1104.38" font-family="Times,serif" font-size="14.00">data</text>
</g>
<!-- n6&#45;&gt;n8 -->
<g id="edge20" class="edge">
<title>n6&#45;&gt;n8</title>
<path fill="none" stroke="black" d="M547.04,-1133.73C541.69,-1121.08 535.08,-1105.47 528.92,-1090.95"/>
<polygon fill="black" stroke="black" points="532.09,-1089.45 524.97,-1081.6 525.64,-1092.18 532.09,-1089.45"/>
<text text-anchor="middle" x="554.93" y="-1104.38" font-family="Times,serif" font-size="14.00">data</text>
</g>
<!-- n6&#45;&gt;n9 -->
<g id="edge18" class="edge">
<title>n6&#45;&gt;n9</title>
<path fill="none" stroke="black" d="M577.24,-1134.29C589.8,-1117.93 606.31,-1096.42 619.88,-1078.74"/>
<polygon fill="black" stroke="black" points="622.96,-1080.47 626.28,-1070.41 617.41,-1076.21 622.96,-1080.47"/>
<text text-anchor="middle" x="617.43" y="-1104.38" font-family="Times,serif" font-size="14.00">flow</text>
</g>
<!-- n21 -->
<g id="node23" class="node">
<title>n21</title>
<ellipse fill="none" stroke="black" cx="798.93" cy="-1045.1" rx="81.13" ry="37.45"/>
<text text-anchor="middle" x="798.93" y="-1056.4" font-family="Times,serif" font-size="14.00">id=INT</text>
<text text-anchor="middle" x="798.93" y="-1041.4" font-family="Times,serif" font-size="14.00">nid=21</text>
<text text-anchor="middle" x="798.93" y="-1026.4" font-family="Times,serif" font-size="14.00">value= &#39;2740&#39;</text>
</g>
<!-- n22 -->
<g id="node24" class="node">
<title>n22</title>
<ellipse fill="none" stroke="black" cx="979.93" cy="-1045.1" rx="81.13" ry="37.45"/>
<text text-anchor="middle" x="979.93" y="-1056.4" font-family="Times,serif" font-size="14.00">id=INT</text>
<text text-anchor="middle" x="979.93" y="-1041.4" font-family="Times,serif" font-size="14.00">nid=22</text>
<text text-anchor="middle" x="979.93" y="-1026.4" font-family="Times,serif" font-size="14.00">value= &#39;5984&#39;</text>
</g>
<!-- n24 -->
<g id="node25" class="node">
<title>n24</title>
<ellipse fill="none" stroke="black" cx="1083.93" cy="-919.15" rx="62.87" ry="37.45"/>
<text text-anchor="middle" x="1083.93" y="-930.45" font-family="Times,serif" font-size="14.00">id=NAME</text>
<text text-anchor="middle" x="1083.93" y="-915.45" font-family="Times,serif" font-size="14.00">nid=24</text>
<text text-anchor="middle" x="1083.93" y="-900.45" font-family="Times,serif" font-size="14.00">value= &#39;a&#39;</text>
</g>
<!-- n25 -->
<g id="node26" class="node">
<title>n25</title>
<ellipse fill="none" stroke="black" cx="1227.93" cy="-919.15" rx="62.87" ry="37.45"/>
<text text-anchor="middle" x="1227.93" y="-930.45" font-family="Times,serif" font-size="14.00">id=NAME</text>
<text text-anchor="middle" x="1227.93" y="-915.45" font-family="Times,serif" font-size="14.00">nid=25</text>
<text text-anchor="middle" x="1227.93" y="-900.45" font-family="Times,serif" font-size="14.00">value= &#39;b&#39;</text>
</g>
<!-- n23 -->
<g id="node27" class="node">
<title>n23</title>
<ellipse fill="none" stroke="black" cx="1155.93" cy="-1045.1" rx="77.15" ry="26.74"/>
<text text-anchor="middle" x="1155.93" y="-1048.9" font-family="Times,serif" font-size="14.00">id=flowpoint</text>
<text text-anchor="middle" x="1155.93" y="-1033.9" font-family="Times,serif" font-size="14.00">nid=23</text>
</g>
<!-- n23&#45;&gt;n24 -->
<g id="edge21" class="edge">
<title>n23&#45;&gt;n24</title>
<path fill="none" stroke="black" d="M1141.19,-1018.72C1132,-1002.89 1119.92,-982.11 1109.23,-963.71"/>
<polygon fill="black" stroke="black" points="1112.16,-961.79 1104.12,-954.9 1106.11,-965.3 1112.16,-961.79"/>
<text text-anchor="middle" x="1139.93" y="-978.43" font-family="Times,serif" font-size="14.00">data</text>
</g>
<!-- n23&#45;&gt;n25 -->
<g id="edge22" class="edge">
<title>n23&#45;&gt;n25</title>
<path fill="none" stroke="black" d="M1170.68,-1018.72C1179.87,-1002.89 1191.94,-982.11 1202.63,-963.71"/>
<polygon fill="black" stroke="black" points="1205.75,-965.3 1207.75,-954.9 1199.7,-961.79 1205.75,-965.3"/>
<text text-anchor="middle" x="1211.93" y="-978.43" font-family="Times,serif" font-size="14.00">data</text>
</g>
<!-- n20&#45;&gt;n21 -->
<g id="edge24" class="edge">
<title>n20&#45;&gt;n21</title>
<path fill="none" stroke="black" d="M869.63,-1135.13C858.89,-1121.62 845.23,-1104.41 832.78,-1088.73"/>
<polygon fill="black" stroke="black" points="835.36,-1086.36 826.4,-1080.7 829.88,-1090.71 835.36,-1086.36"/>
<text text-anchor="middle" x="868.93" y="-1104.38" font-family="Times,serif" font-size="14.00">data</text>
</g>
<!-- n20&#45;&gt;n22 -->
<g id="edge25" class="edge">
<title>n20&#45;&gt;n22</title>
<path fill="none" stroke="black" d="M908.45,-1135.13C919.31,-1121.62 933.12,-1104.41 945.71,-1088.73"/>
<polygon fill="black" stroke="black" points="948.63,-1090.69 952.16,-1080.7 943.17,-1086.31 948.63,-1090.69"/>
<text text-anchor="middle" x="950.93" y="-1104.38" font-family="Times,serif" font-size="14.00">data</text>
</g>
<!-- n20&#45;&gt;n23 -->
<g id="edge23" class="edge">
<title>n20&#45;&gt;n23</title>
<path fill="none" stroke="black" d="M929.19,-1142.36C974.32,-1123.2 1047.82,-1092 1098.85,-1070.33"/>
<polygon fill="black" stroke="black" points="1100.27,-1073.53 1108.11,-1066.4 1097.54,-1067.09 1100.27,-1073.53"/>
<text text-anchor="middle" x="1038.43" y="-1104.38" font-family="Times,serif" font-size="14.00">flow</text>
</g>
<!-- n29 -->
<g id="node29" class="node">
<title>n29</title>
<ellipse fill="none" stroke="black" cx="547.93" cy="-289.38" rx="88.28" ry="37.45"/>
<text text-anchor="middle" x="547.93" y="-300.68" font-family="Times,serif" font-size="14.00">id=NAME</text>
<text text-anchor="middle" x="547.93" y="-285.68" font-family="Times,serif" font-size="14.00">nid=29</text>
<text text-anchor="middle" x="547.93" y="-270.68" font-family="Times,serif" font-size="14.00">value= &#39;stdout&#39;</text>
</g>
<!-- n28 -->
<g id="node30" class="node">
<title>n28</title>
<ellipse fill="none" stroke="black" cx="547.93" cy="-415.34" rx="77.15" ry="26.74"/>
<text text-anchor="middle" x="547.93" y="-419.14" font-family="Times,serif" font-size="14.00">id=flowpoint</text>
<text text-anchor="middle" x="547.93" y="-404.14" font-family="Times,serif" font-size="14.00">nid=28</text>
</g>
<!-- n28&#45;&gt;n29 -->
<g id="edge28" class="edge">
<title>n28&#45;&gt;n29</title>
<path fill="none" stroke="black" d="M547.93,-388.35C547.93,-373.65 547.93,-354.82 547.93,-337.61"/>
<polygon fill="black" stroke="black" points="551.43,-337.15 547.93,-327.15 544.43,-337.15 551.43,-337.15"/>
<text text-anchor="middle" x="563.93" y="-348.66" font-family="Times,serif" font-size="14.00">data</text>
</g>
<!-- n27&#45;&gt;n28 -->
<g id="edge29" class="edge">
<title>n27&#45;&gt;n28</title>
<path fill="none" stroke="black" d="M547.93,-503.77C547.93,-487.6 547.93,-468.64 547.93,-452.51"/>
<polygon fill="black" stroke="black" points="551.43,-452.38 547.93,-442.38 544.43,-452.38 551.43,-452.38"/>
<text text-anchor="middle" x="563.43" y="-474.61" font-family="Times,serif" font-size="14.00">flow</text>
</g>
<!-- n32 -->
<g id="node32" class="node">
<title>n32</title>
<ellipse fill="none" stroke="black" cx="750.93" cy="-415.34" rx="62.87" ry="37.45"/>
<text text-anchor="middle" x="750.93" y="-426.64" font-family="Times,serif" font-size="14.00">id=NAME</text>
<text text-anchor="middle" x="750.93" y="-411.64" font-family="Times,serif" font-size="14.00">nid=32</text>
<text text-anchor="middle" x="750.93" y="-396.64" font-family="Times,serif" font-size="14.00">value= &#39;b&#39;</text>
</g>
<!-- n34 -->
<g id="node33" class="node">
<title>n34</title>
<ellipse fill="none" stroke="black" cx="731.93" cy="-289.38" rx="62.87" ry="37.45"/>
<text text-anchor="middle" x="731.93" y="-300.68" font-family="Times,serif" font-size="14.00">id=NAME</text>
<text text-anchor="middle" x="731.93" y="-285.68" font-family="Times,serif" font-size="14.00">nid=34</text>
<text text-anchor="middle" x="731.93" y="-270.68" font-family="Times,serif" font-size="14.00">value= &#39;a&#39;</text>
</g>
<!-- n35 -->
<g id="node34" class="node">
<title>n35</title>
<ellipse fill="none" stroke="black" cx="900.93" cy="-289.38" rx="88.28" ry="37.45"/>
<text text-anchor="middle" x="900.93" y="-300.68" font-family="Times,serif" font-size="14.00">id=OPERATOR</text>
<text text-anchor="middle" x="900.93" y="-285.68" font-family="Times,serif" font-size="14.00">nid=35</text>
<text text-anchor="middle" x="900.93" y="-270.68" font-family="Times,serif" font-size="14.00">value= &#39;&#45;&#39;</text>
</g>
<!-- n38 -->
<g id="node35" class="node">
<title>n38</title>
<ellipse fill="none" stroke="black" cx="731.93" cy="-37.48" rx="62.87" ry="37.45"/>
<text text-anchor="middle" x="731.93" y="-48.78" font-family="Times,serif" font-size="14.00">id=NAME</text>
<text text-anchor="middle" x="731.93" y="-33.78" font-family="Times,serif" font-size="14.00">nid=38</text>
<text text-anchor="middle" x="731.93" y="-18.78" font-family="Times,serif" font-size="14.00">value= &#39;a&#39;</text>
</g>
<!-- n39 -->
<g id="node36" class="node">
<title>n39</title>
<ellipse fill="none" stroke="black" cx="900.93" cy="-37.48" rx="88.28" ry="37.45"/>
<text text-anchor="middle" x="900.93" y="-48.78" font-family="Times,serif" font-size="14.00">id=OPERATOR</text>
<text text-anchor="middle" x="900.93" y="-33.78" font-family="Times,serif" font-size="14.00">nid=39</text>
<text text-anchor="middle" x="900.93" y="-18.78" font-family="Times,serif" font-size="14.00">value= &#39;/&#39;</text>
</g>
<!-- n40 -->
<g id="node37" class="node">
<title>n40</title>
<ellipse fill="none" stroke="black" cx="1069.93" cy="-37.48" rx="62.87" ry="37.45"/>
<text text-anchor="middle" x="1069.93" y="-48.78" font-family="Times,serif" font-size="14.00">id=NAME</text>
<text text-anchor="middle" x="1069.93" y="-33.78" font-family="Times,serif" font-size="14.00">nid=40</text>
<text text-anchor="middle" x="1069.93" y="-18.78" font-family="Times,serif" font-size="14.00">value= &#39;b&#39;</text>
</g>
<!-- n37 -->
<g id="node38" class="node">
<title>n37</title>
<ellipse fill="none" stroke="black" cx="900.93" cy="-163.43" rx="73.58" ry="26.74"/>
<text text-anchor="middle" x="900.93" y="-167.23" font-family="Times,serif" font-size="14.00">id=equation</text>
<text text-anchor="middle" x="900.93" y="-152.23" font-family="Times,serif" font-size="14.00">nid=37</text>
</g>
<!-- n37&#45;&gt;n38 -->
<g id="edge31" class="edge">
<title>n37&#45;&gt;n38</title>
<path fill="none" stroke="black" d="M869.14,-139.12C843.82,-120.54 807.98,-94.25 779.28,-73.2"/>
<polygon fill="black" stroke="black" points="781.14,-70.23 771,-67.13 777,-75.87 781.14,-70.23"/>
<text text-anchor="middle" x="842.93" y="-96.75" font-family="Times,serif" font-size="14.00">data</text>
</g>
<!-- n37&#45;&gt;n39 -->
<g id="edge32" class="edge">
<title>n37&#45;&gt;n39</title>
<path fill="none" stroke="black" d="M900.93,-136.45C900.93,-121.75 900.93,-102.92 900.93,-85.7"/>
<polygon fill="black" stroke="black" points="904.43,-85.24 900.93,-75.24 897.43,-85.24 904.43,-85.24"/>
<text text-anchor="middle" x="916.93" y="-96.75" font-family="Times,serif" font-size="14.00">data</text>
</g>
<!-- n37&#45;&gt;n40 -->
<g id="edge33" class="edge">
<title>n37&#45;&gt;n40</title>
<path fill="none" stroke="black" d="M932.72,-139.12C958.04,-120.54 993.89,-94.25 1022.59,-73.2"/>
<polygon fill="black" stroke="black" points="1024.87,-75.87 1030.86,-67.13 1020.73,-70.23 1024.87,-75.87"/>
<text text-anchor="middle" x="1011.93" y="-96.75" font-family="Times,serif" font-size="14.00">data</text>
</g>
<!-- n41 -->
<g id="node39" class="node">
<title>n41</title>
<ellipse fill="none" stroke="black" cx="1080.93" cy="-163.43" rx="88.28" ry="37.45"/>
<text text-anchor="middle" x="1080.93" y="-174.73" font-family="Times,serif" font-size="14.00">id=OPERATOR</text>
<text text-anchor="middle" x="1080.93" y="-159.73" font-family="Times,serif" font-size="14.00">nid=41</text>
<text text-anchor="middle" x="1080.93" y="-144.73" font-family="Times,serif" font-size="14.00">value= &#39;*&#39;</text>
</g>
<!-- n42 -->
<g id="node40" class="node">
<title>n42</title>
<ellipse fill="none" stroke="black" cx="1249.93" cy="-163.43" rx="62.87" ry="37.45"/>
<text text-anchor="middle" x="1249.93" y="-174.73" font-family="Times,serif" font-size="14.00">id=NAME</text>
<text text-anchor="middle" x="1249.93" y="-159.73" font-family="Times,serif" font-size="14.00">nid=42</text>
<text text-anchor="middle" x="1249.93" y="-144.73" font-family="Times,serif" font-size="14.00">value= &#39;b&#39;</text>
</g>
<!-- n36 -->
<g id="node41" class="node">
<title>n36</title>
<ellipse fill="none" stroke="black" cx="1080.93" cy="-289.38" rx="73.58" ry="26.74"/>
<text text-anchor="middle" x="1080.93" y="-293.18" font-family="Times,serif" font-size="14.00">id=equation</text>
<text text-anchor="middle" x="1080.93" y="-278.18" font-family="Times,serif" font-size="14.00">nid=36</text>
</g>
<!-- n36&#45;&gt;n37 -->
<g id="edge34" class="edge">
<title>n36&#45;&gt;n37</title>
<path fill="none" stroke="black" d="M1047.5,-265.36C1017.91,-244.99 974.61,-215.17 942.74,-193.22"/>
<polygon fill="black" stroke="black" points="944.71,-190.33 934.49,-187.54 940.74,-196.1 944.71,-190.33"/>
<text text-anchor="middle" x="1017.93" y="-222.71" font-family="Times,serif" font-size="14.00">data</text>
</g>
<!-- n36&#45;&gt;n41 -->
<g id="edge35" class="edge">
<title>n36&#45;&gt;n41</title>
<path fill="none" stroke="black" d="M1080.93,-262.4C1080.93,-247.7 1080.93,-228.87 1080.93,-211.65"/>
<polygon fill="black" stroke="black" points="1084.43,-211.19 1080.93,-201.19 1077.43,-211.19 1084.43,-211.19"/>
<text text-anchor="middle" x="1096.93" y="-222.71" font-family="Times,serif" font-size="14.00">data</text>
</g>
<!-- n36&#45;&gt;n42 -->
<g id="edge36" class="edge">
<title>n36&#45;&gt;n42</title>
<path fill="none" stroke="black" d="M1112.72,-265.07C1138.04,-246.49 1173.89,-220.21 1202.59,-199.16"/>
<polygon fill="black" stroke="black" points="1204.87,-201.82 1210.86,-193.09 1200.73,-196.18 1204.87,-201.82"/>
<text text-anchor="middle" x="1190.93" y="-222.71" font-family="Times,serif" font-size="14.00">data</text>
</g>
<!-- n33 -->
<g id="node42" class="node">
<title>n33</title>
<ellipse fill="none" stroke="black" cx="904.93" cy="-415.34" rx="73.58" ry="26.74"/>
<text text-anchor="middle" x="904.93" y="-419.14" font-family="Times,serif" font-size="14.00">id=equation</text>
<text text-anchor="middle" x="904.93" y="-404.14" font-family="Times,serif" font-size="14.00">nid=33</text>
</g>
<!-- n33&#45;&gt;n34 -->
<g id="edge37" class="edge">
<title>n33&#45;&gt;n34</title>
<path fill="none" stroke="black" d="M872.39,-391.02C846.38,-372.38 809.53,-345.98 780.1,-324.89"/>
<polygon fill="black" stroke="black" points="781.78,-321.8 771.62,-318.82 777.71,-327.49 781.78,-321.8"/>
<text text-anchor="middle" x="844.93" y="-348.66" font-family="Times,serif" font-size="14.00">data</text>
</g>
<!-- n33&#45;&gt;n35 -->
<g id="edge38" class="edge">
<title>n33&#45;&gt;n35</title>
<path fill="none" stroke="black" d="M904.09,-388.35C903.62,-373.65 903.01,-354.82 902.46,-337.61"/>
<polygon fill="black" stroke="black" points="905.94,-337.03 902.12,-327.15 898.94,-337.26 905.94,-337.03"/>
<text text-anchor="middle" x="919.93" y="-348.66" font-family="Times,serif" font-size="14.00">data</text>
</g>
<!-- n33&#45;&gt;n36 -->
<g id="edge39" class="edge">
<title>n33&#45;&gt;n36</title>
<path fill="none" stroke="black" d="M938.04,-391.02C966.8,-370.77 1008.59,-341.33 1039.55,-319.53"/>
<polygon fill="black" stroke="black" points="1041.82,-322.21 1047.98,-313.59 1037.79,-316.49 1041.82,-322.21"/>
<text text-anchor="middle" x="1019.93" y="-348.66" font-family="Times,serif" font-size="14.00">data</text>
</g>
<!-- n44 -->
<g id="node43" class="node">
<title>n44</title>
<ellipse fill="none" stroke="black" cx="1234.93" cy="-289.38" rx="62.87" ry="37.45"/>
<text text-anchor="middle" x="1234.93" y="-300.68" font-family="Times,serif" font-size="14.00">id=NAME</text>
<text text-anchor="middle" x="1234.93" y="-285.68" font-family="Times,serif" font-size="14.00">nid=44</text>
<text text-anchor="middle" x="1234.93" y="-270.68" font-family="Times,serif" font-size="14.00">value= &#39;a&#39;</text>
</g>
<!-- n45 -->
<g id="node44" class="node">
<title>n45</title>
<ellipse fill="none" stroke="black" cx="1378.93" cy="-289.38" rx="62.87" ry="37.45"/>
<text text-anchor="middle" x="1378.93" y="-300.68" font-family="Times,serif" font-size="14.00">id=NAME</text>
<text text-anchor="middle" x="1378.93" y="-285.68" font-family="Times,serif" font-size="14.00">nid=45</text>
<text text-anchor="middle" x="1378.93" y="-270.68" font-family="Times,serif" font-size="14.00">value= &#39;b&#39;</text>
</g>
<!-- n43 -->
<g id="node45" class="node">
<title>n43</title>
<ellipse fill="none" stroke="black" cx="1234.93" cy="-415.34" rx="77.15" ry="26.74"/>
<text text-anchor="middle" x="1234.93" y="-419.14" font-family="Times,serif" font-size="14.00">id=flowpoint</text>
<text text-anchor="middle" x="1234.93" y="-404.14" font-family="Times,serif" font-size="14.00">nid=43</text>
</g>
<!-- n43&#45;&gt;n44 -->
<g id="edge40" class="edge">
<title>n43&#45;&gt;n44</title>
<path fill="none" stroke="black" d="M1234.93,-388.35C1234.93,-373.65 1234.93,-354.82 1234.93,-337.61"/>
<polygon fill="black" stroke="black" points="1238.43,-337.15 1234.93,-327.15 1231.43,-337.15 1238.43,-337.15"/>
<text text-anchor="middle" x="1250.93" y="-348.66" font-family="Times,serif" font-size="14.00">data</text>
</g>
<!-- n43&#45;&gt;n45 -->
<g id="edge41" class="edge">
<title>n43&#45;&gt;n45</title>
<path fill="none" stroke="black" d="M1263.04,-390.14C1283.78,-372.29 1312.37,-347.68 1335.96,-327.37"/>
<polygon fill="black" stroke="black" points="1338.46,-329.84 1343.76,-320.66 1333.89,-324.53 1338.46,-329.84"/>
<text text-anchor="middle" x="1330.93" y="-348.66" font-family="Times,serif" font-size="14.00">data</text>
</g>
<!-- n31&#45;&gt;n32 -->
<g id="edge43" class="edge">
<title>n31&#45;&gt;n32</title>
<path fill="none" stroke="black" d="M877.04,-517.84C854.34,-499.57 821.87,-473.43 795.56,-452.25"/>
<polygon fill="black" stroke="black" points="797.59,-449.4 787.61,-445.86 793.2,-454.85 797.59,-449.4"/>
<text text-anchor="middle" x="853.93" y="-474.61" font-family="Times,serif" font-size="14.00">data</text>
</g>
<!-- n31&#45;&gt;n33 -->
<g id="edge44" class="edge">
<title>n31&#45;&gt;n33</title>
<path fill="none" stroke="black" d="M904.93,-514.31C904.93,-496.37 904.93,-472.29 904.93,-452.49"/>
<polygon fill="black" stroke="black" points="908.43,-452.29 904.93,-442.29 901.43,-452.29 908.43,-452.29"/>
<text text-anchor="middle" x="920.93" y="-474.61" font-family="Times,serif" font-size="14.00">data</text>
</g>
<!-- n31&#45;&gt;n43 -->
<g id="edge42" class="edge">
<title>n31&#45;&gt;n43</title>
<path fill="none" stroke="black" d="M947.4,-524.34C1005.06,-502.68 1108.44,-463.85 1174.27,-439.12"/>
<polygon fill="black" stroke="black" points="1175.56,-442.38 1183.69,-435.58 1173.1,-435.82 1175.56,-442.38"/>
<text text-anchor="middle" x="1104.43" y="-474.61" font-family="Times,serif" font-size="14.00">flow</text>
</g>
</g>
</svg>
