<?xml version="1.0" encoding="UTF-8" standalone="no"?>
<!DOCTYPE svg PUBLIC "-//W3C//DTD SVG 1.1//EN"
 "http://www.w3.org/Graphics/SVG/1.1/DTD/svg11.dtd">
<!-- Generated by graphviz version 2.43.0 (0)
 -->
<!-- Title: G Pages: 1 -->
<svg width="1190pt" height="1866pt"
 viewBox="0.00 0.00 1190.45 1866.14" xmlns="http://www.w3.org/2000/svg" xmlns:xlink="http://www.w3.org/1999/xlink">
<g id="graph0" class="graph" transform="scale(1 1) rotate(0) translate(4 1862.14)">
<title>G</title>
<polygon fill="white" stroke="transparent" points="-4,4 -4,-1862.14 1186.45,-1862.14 1186.45,4 -4,4"/>
<!-- n3 -->
<g id="node1" class="node">
<title>n3</title>
<ellipse fill="none" stroke="black" cx="272.23" cy="-1513.23" rx="74.91" ry="37.45"/>
<text text-anchor="middle" x="272.23" y="-1524.53" font-family="Times,serif" font-size="14.00">BLOCK_REF</text>
<text text-anchor="middle" x="272.23" y="-1509.53" font-family="Times,serif" font-size="14.00">nid=3</text>
<text text-anchor="middle" x="272.23" y="-1494.53" font-family="Times,serif" font-size="14.00">value= &#39;0&#39;</text>
</g>
<!-- n4 -->
<g id="node2" class="node">
<title>n4</title>
<ellipse fill="none" stroke="black" cx="272.23" cy="-1387.28" rx="67.35" ry="37.45"/>
<text text-anchor="middle" x="272.23" y="-1398.58" font-family="Times,serif" font-size="14.00">BLOCK</text>
<text text-anchor="middle" x="272.23" y="-1383.58" font-family="Times,serif" font-size="14.00">nid=4</text>
<text text-anchor="middle" x="272.23" y="-1368.58" font-family="Times,serif" font-size="14.00">block_id=0</text>
</g>
<!-- n3&#45;&gt;n4 -->
<g id="edge1" class="edge">
<title>n3&#45;&gt;n4</title>
<path fill="none" stroke="purple" d="M272.23,-1475.71C272.23,-1462.96 272.23,-1448.48 272.23,-1435.01"/>
<polygon fill="purple" stroke="purple" points="275.73,-1434.96 272.23,-1424.96 268.73,-1434.96 275.73,-1434.96"/>
<text text-anchor="middle" x="291.23" y="-1446.55" font-family="Times,serif" font-size="14.00">block</text>
</g>
<!-- n5 -->
<g id="node19" class="node">
<title>n5</title>
<ellipse fill="none" stroke="black" cx="664.23" cy="-1044.63" rx="92.76" ry="37.45"/>
<text text-anchor="middle" x="664.23" y="-1055.93" font-family="Times,serif" font-size="14.00">FLOWPOINT</text>
<text text-anchor="middle" x="664.23" y="-1040.93" font-family="Times,serif" font-size="14.00">nid=5</text>
<text text-anchor="middle" x="664.23" y="-1025.93" font-family="Times,serif" font-size="14.00">value= &#39;[&#39;a&#39;, &#39;b&#39;]&#39;</text>
</g>
<!-- n4&#45;&gt;n5 -->
<g id="edge23" class="edge">
<title>n4&#45;&gt;n5</title>
<path fill="none" stroke="grey" d="M260.79,-1350.1C246.23,-1296.26 228.58,-1194.78 279.23,-1133.11 314.8,-1089.79 462.06,-1066.11 563.78,-1054.67"/>
<polygon fill="grey" stroke="grey" points="564.23,-1058.14 573.79,-1053.56 563.46,-1051.18 564.23,-1058.14"/>
</g>
<!-- n17 -->
<g id="node23" class="node">
<title>n17</title>
<ellipse fill="none" stroke="black" cx="550.23" cy="-1285.93" rx="48.58" ry="26.74"/>
<text text-anchor="middle" x="550.23" y="-1289.73" font-family="Times,serif" font-size="14.00">glom</text>
<text text-anchor="middle" x="550.23" y="-1274.73" font-family="Times,serif" font-size="14.00">nid=17</text>
</g>
<!-- n4&#45;&gt;n17 -->
<g id="edge24" class="edge">
<title>n4&#45;&gt;n17</title>
<path fill="none" stroke="grey" d="M328.15,-1366.29C378.58,-1348.27 452.07,-1322.01 500.49,-1304.7"/>
<polygon fill="grey" stroke="grey" points="501.89,-1307.92 510.13,-1301.26 499.53,-1301.33 501.89,-1307.92"/>
</g>
<!-- n2 -->
<g id="node3" class="node">
<title>n2</title>
<ellipse fill="none" stroke="black" cx="272.23" cy="-1614.58" rx="53.98" ry="26.74"/>
<text text-anchor="middle" x="272.23" y="-1618.38" font-family="Times,serif" font-size="14.00">INVOKE</text>
<text text-anchor="middle" x="272.23" y="-1603.38" font-family="Times,serif" font-size="14.00">nid=2</text>
</g>
<!-- n2&#45;&gt;n3 -->
<g id="edge2" class="edge">
<title>n2&#45;&gt;n3</title>
<path fill="none" stroke="grey" d="M272.23,-1587.47C272.23,-1579.37 272.23,-1570.18 272.23,-1561.11"/>
<polygon fill="grey" stroke="grey" points="275.73,-1560.99 272.23,-1550.99 268.73,-1560.99 275.73,-1560.99"/>
</g>
<!-- n1 -->
<g id="node4" class="node">
<title>n1</title>
<ellipse fill="none" stroke="black" cx="272.23" cy="-1729.92" rx="96.75" ry="37.45"/>
<text text-anchor="middle" x="272.23" y="-1741.22" font-family="Times,serif" font-size="14.00">FLOWPOINT</text>
<text text-anchor="middle" x="272.23" y="-1726.22" font-family="Times,serif" font-size="14.00">nid=1</text>
<text text-anchor="middle" x="272.23" y="-1711.22" font-family="Times,serif" font-size="14.00">value= &#39;[&#39;stdlib&#39;]&#39;</text>
</g>
<!-- n1&#45;&gt;n2 -->
<g id="edge3" class="edge">
<title>n1&#45;&gt;n2</title>
<path fill="none" stroke="green" d="M272.23,-1692.44C272.23,-1679.36 272.23,-1664.64 272.23,-1651.61"/>
<polygon fill="green" stroke="green" points="275.73,-1651.58 272.23,-1641.58 268.73,-1651.58 275.73,-1651.58"/>
<text text-anchor="middle" x="287.73" y="-1663.25" font-family="Times,serif" font-size="14.00">flow</text>
</g>
<!-- n0 -->
<g id="node5" class="node">
<title>n0</title>
<ellipse fill="none" stroke="black" cx="272.23" cy="-1831.27" rx="42.35" ry="26.74"/>
<text text-anchor="middle" x="272.23" y="-1835.07" font-family="Times,serif" font-size="14.00">file</text>
<text text-anchor="middle" x="272.23" y="-1820.07" font-family="Times,serif" font-size="14.00">nid=0</text>
</g>
<!-- n0&#45;&gt;n1 -->
<g id="edge4" class="edge">
<title>n0&#45;&gt;n1</title>
<path fill="none" stroke="grey" d="M272.23,-1804.17C272.23,-1796.06 272.23,-1786.87 272.23,-1777.8"/>
<polygon fill="grey" stroke="grey" points="275.73,-1777.68 272.23,-1767.68 268.73,-1777.68 275.73,-1777.68"/>
</g>
<!-- n9 -->
<g id="node6" class="node">
<title>n9</title>
<ellipse fill="none" stroke="black" cx="62.23" cy="-611.24" rx="62.45" ry="37.45"/>
<text text-anchor="middle" x="62.23" y="-622.54" font-family="Times,serif" font-size="14.00">NAME</text>
<text text-anchor="middle" x="62.23" y="-607.54" font-family="Times,serif" font-size="14.00">nid=9</text>
<text text-anchor="middle" x="62.23" y="-592.54" font-family="Times,serif" font-size="14.00">value= &#39;b&#39;</text>
</g>
<!-- n10 -->
<g id="node7" class="node">
<title>n10</title>
<ellipse fill="none" stroke="black" cx="215.23" cy="-611.24" rx="72.66" ry="37.45"/>
<text text-anchor="middle" x="215.23" y="-622.54" font-family="Times,serif" font-size="14.00">OPERATOR</text>
<text text-anchor="middle" x="215.23" y="-607.54" font-family="Times,serif" font-size="14.00">nid=10</text>
<text text-anchor="middle" x="215.23" y="-592.54" font-family="Times,serif" font-size="14.00">value= &#39;==&#39;</text>
</g>
<!-- n11 -->
<g id="node8" class="node">
<title>n11</title>
<ellipse fill="none" stroke="black" cx="368.23" cy="-611.24" rx="62.45" ry="37.45"/>
<text text-anchor="middle" x="368.23" y="-622.54" font-family="Times,serif" font-size="14.00">INT</text>
<text text-anchor="middle" x="368.23" y="-607.54" font-family="Times,serif" font-size="14.00">nid=11</text>
<text text-anchor="middle" x="368.23" y="-592.54" font-family="Times,serif" font-size="14.00">value= &#39;0&#39;</text>
</g>
<!-- n8 -->
<g id="node9" class="node">
<title>n8</title>
<ellipse fill="none" stroke="black" cx="291.23" cy="-737.2" rx="55.72" ry="26.74"/>
<text text-anchor="middle" x="291.23" y="-741" font-family="Times,serif" font-size="14.00">equation</text>
<text text-anchor="middle" x="291.23" y="-726" font-family="Times,serif" font-size="14.00">nid=8</text>
</g>
<!-- n8&#45;&gt;n9 -->
<g id="edge5" class="edge">
<title>n8&#45;&gt;n9</title>
<path fill="none" stroke="grey" d="M254.94,-716.56C217.73,-696.42 159.42,-664.85 116.68,-641.72"/>
<polygon fill="grey" stroke="grey" points="118.27,-638.6 107.81,-636.92 114.93,-644.75 118.27,-638.6"/>
</g>
<!-- n8&#45;&gt;n10 -->
<g id="edge6" class="edge">
<title>n8&#45;&gt;n10</title>
<path fill="none" stroke="grey" d="M275.85,-711.11C266.11,-695.23 253.26,-674.28 241.9,-655.75"/>
<polygon fill="grey" stroke="grey" points="244.84,-653.85 236.63,-647.15 238.87,-657.51 244.84,-653.85"/>
</g>
<!-- n8&#45;&gt;n11 -->
<g id="edge7" class="edge">
<title>n8&#45;&gt;n11</title>
<path fill="none" stroke="grey" d="M306.81,-711.11C316.75,-695.11 329.89,-673.95 341.47,-655.32"/>
<polygon fill="grey" stroke="grey" points="344.53,-657.03 346.83,-646.68 338.58,-653.33 344.53,-657.03"/>
</g>
<!-- n12 -->
<g id="node10" class="node">
<title>n12</title>
<ellipse fill="none" stroke="black" cx="515.23" cy="-737.2" rx="74.91" ry="37.45"/>
<text text-anchor="middle" x="515.23" y="-748.5" font-family="Times,serif" font-size="14.00">BLOCK_REF</text>
<text text-anchor="middle" x="515.23" y="-733.5" font-family="Times,serif" font-size="14.00">nid=12</text>
<text text-anchor="middle" x="515.23" y="-718.5" font-family="Times,serif" font-size="14.00">value= &#39;1&#39;</text>
</g>
<!-- n21 -->
<g id="node11" class="node">
<title>n21</title>
<ellipse fill="none" stroke="black" cx="515.23" cy="-611.24" rx="67.35" ry="37.45"/>
<text text-anchor="middle" x="515.23" y="-622.54" font-family="Times,serif" font-size="14.00">BLOCK</text>
<text text-anchor="middle" x="515.23" y="-607.54" font-family="Times,serif" font-size="14.00">nid=21</text>
<text text-anchor="middle" x="515.23" y="-592.54" font-family="Times,serif" font-size="14.00">block_id=1</text>
</g>
<!-- n12&#45;&gt;n21 -->
<g id="edge8" class="edge">
<title>n12&#45;&gt;n21</title>
<path fill="none" stroke="purple" d="M515.23,-699.68C515.23,-686.93 515.23,-672.44 515.23,-658.98"/>
<polygon fill="purple" stroke="purple" points="518.73,-658.93 515.23,-648.93 511.73,-658.93 518.73,-658.93"/>
<text text-anchor="middle" x="534.23" y="-670.52" font-family="Times,serif" font-size="14.00">block</text>
</g>
<!-- n22 -->
<g id="node25" class="node">
<title>n22</title>
<ellipse fill="none" stroke="black" cx="509.23" cy="-499.29" rx="61.54" ry="37.45"/>
<text text-anchor="middle" x="509.23" y="-510.59" font-family="Times,serif" font-size="14.00">NAME</text>
<text text-anchor="middle" x="509.23" y="-495.59" font-family="Times,serif" font-size="14.00">nid=22</text>
<text text-anchor="middle" x="509.23" y="-480.59" font-family="Times,serif" font-size="14.00">value= &#39;a&#39;</text>
</g>
<!-- n21&#45;&gt;n22 -->
<g id="edge26" class="edge">
<title>n21&#45;&gt;n22</title>
<path fill="none" stroke="grey" d="M513.23,-573.63C512.77,-565.19 512.27,-556.09 511.79,-547.28"/>
<polygon fill="grey" stroke="grey" points="515.27,-546.91 511.24,-537.12 508.29,-547.29 515.27,-546.91"/>
</g>
<!-- n7 -->
<g id="node12" class="node">
<title>n7</title>
<ellipse fill="none" stroke="black" cx="515.23" cy="-838.54" rx="45.92" ry="26.74"/>
<text text-anchor="middle" x="515.23" y="-842.34" font-family="Times,serif" font-size="14.00">twople</text>
<text text-anchor="middle" x="515.23" y="-827.34" font-family="Times,serif" font-size="14.00">nid=7</text>
</g>
<!-- n7&#45;&gt;n8 -->
<g id="edge9" class="edge">
<title>n7&#45;&gt;n8</title>
<path fill="none" stroke="grey" d="M479.24,-821.58C441.64,-804.91 382.41,-778.64 340.48,-760.04"/>
<polygon fill="grey" stroke="grey" points="341.85,-756.82 331.29,-755.96 339.01,-763.22 341.85,-756.82"/>
</g>
<!-- n7&#45;&gt;n12 -->
<g id="edge10" class="edge">
<title>n7&#45;&gt;n12</title>
<path fill="none" stroke="grey" d="M515.23,-811.44C515.23,-803.34 515.23,-794.14 515.23,-785.08"/>
<polygon fill="grey" stroke="grey" points="518.73,-784.96 515.23,-774.96 511.73,-784.96 518.73,-784.96"/>
</g>
<!-- n15 -->
<g id="node13" class="node">
<title>n15</title>
<ellipse fill="none" stroke="black" cx="664.23" cy="-611.24" rx="62.45" ry="37.45"/>
<text text-anchor="middle" x="664.23" y="-622.54" font-family="Times,serif" font-size="14.00">INT</text>
<text text-anchor="middle" x="664.23" y="-607.54" font-family="Times,serif" font-size="14.00">nid=15</text>
<text text-anchor="middle" x="664.23" y="-592.54" font-family="Times,serif" font-size="14.00">value= &#39;1&#39;</text>
</g>
<!-- n14 -->
<g id="node14" class="node">
<title>n14</title>
<ellipse fill="none" stroke="black" cx="664.23" cy="-737.2" rx="55.72" ry="26.74"/>
<text text-anchor="middle" x="664.23" y="-741" font-family="Times,serif" font-size="14.00">equation</text>
<text text-anchor="middle" x="664.23" y="-726" font-family="Times,serif" font-size="14.00">nid=14</text>
</g>
<!-- n14&#45;&gt;n15 -->
<g id="edge11" class="edge">
<title>n14&#45;&gt;n15</title>
<path fill="none" stroke="grey" d="M664.23,-710.21C664.23,-695.51 664.23,-676.68 664.23,-659.47"/>
<polygon fill="grey" stroke="grey" points="667.73,-659.01 664.23,-649.01 660.73,-659.01 667.73,-659.01"/>
</g>
<!-- n16 -->
<g id="node15" class="node">
<title>n16</title>
<ellipse fill="none" stroke="black" cx="813.23" cy="-737.2" rx="74.91" ry="37.45"/>
<text text-anchor="middle" x="813.23" y="-748.5" font-family="Times,serif" font-size="14.00">BLOCK_REF</text>
<text text-anchor="middle" x="813.23" y="-733.5" font-family="Times,serif" font-size="14.00">nid=16</text>
<text text-anchor="middle" x="813.23" y="-718.5" font-family="Times,serif" font-size="14.00">value= &#39;2&#39;</text>
</g>
<!-- n24 -->
<g id="node16" class="node">
<title>n24</title>
<ellipse fill="none" stroke="black" cx="821.23" cy="-611.24" rx="67.35" ry="37.45"/>
<text text-anchor="middle" x="821.23" y="-622.54" font-family="Times,serif" font-size="14.00">BLOCK</text>
<text text-anchor="middle" x="821.23" y="-607.54" font-family="Times,serif" font-size="14.00">nid=24</text>
<text text-anchor="middle" x="821.23" y="-592.54" font-family="Times,serif" font-size="14.00">block_id=2</text>
</g>
<!-- n16&#45;&gt;n24 -->
<g id="edge12" class="edge">
<title>n16&#45;&gt;n24</title>
<path fill="none" stroke="purple" d="M815.58,-699.68C816.41,-686.93 817.34,-672.44 818.21,-658.98"/>
<polygon fill="purple" stroke="purple" points="821.71,-659.13 818.86,-648.93 814.72,-658.68 821.71,-659.13"/>
<text text-anchor="middle" x="836.23" y="-670.52" font-family="Times,serif" font-size="14.00">block</text>
</g>
<!-- n25 -->
<g id="node38" class="node">
<title>n25</title>
<ellipse fill="none" stroke="black" cx="826.23" cy="-499.29" rx="48.58" ry="26.74"/>
<text text-anchor="middle" x="826.23" y="-503.09" font-family="Times,serif" font-size="14.00">glom</text>
<text text-anchor="middle" x="826.23" y="-488.09" font-family="Times,serif" font-size="14.00">nid=25</text>
</g>
<!-- n24&#45;&gt;n25 -->
<g id="edge41" class="edge">
<title>n24&#45;&gt;n25</title>
<path fill="none" stroke="grey" d="M822.89,-573.63C823.44,-561.65 824.04,-548.35 824.58,-536.4"/>
<polygon fill="grey" stroke="grey" points="828.08,-536.47 825.04,-526.32 821.09,-536.15 828.08,-536.47"/>
</g>
<!-- n13 -->
<g id="node17" class="node">
<title>n13</title>
<ellipse fill="none" stroke="black" cx="664.23" cy="-838.54" rx="48.58" ry="26.74"/>
<text text-anchor="middle" x="664.23" y="-842.34" font-family="Times,serif" font-size="14.00">twople</text>
<text text-anchor="middle" x="664.23" y="-827.34" font-family="Times,serif" font-size="14.00">nid=13</text>
</g>
<!-- n13&#45;&gt;n14 -->
<g id="edge13" class="edge">
<title>n13&#45;&gt;n14</title>
<path fill="none" stroke="grey" d="M664.23,-811.44C664.23,-800.03 664.23,-786.47 664.23,-774.13"/>
<polygon fill="grey" stroke="grey" points="667.73,-774.12 664.23,-764.12 660.73,-774.12 667.73,-774.12"/>
</g>
<!-- n13&#45;&gt;n16 -->
<g id="edge14" class="edge">
<title>n13&#45;&gt;n16</title>
<path fill="none" stroke="grey" d="M694.74,-817.2C713.68,-804.57 738.53,-788 760.58,-773.3"/>
<polygon fill="grey" stroke="grey" points="762.81,-776.02 769.19,-767.56 758.93,-770.19 762.81,-776.02"/>
</g>
<!-- n6 -->
<g id="node18" class="node">
<title>n6</title>
<ellipse fill="none" stroke="black" cx="664.23" cy="-929.28" rx="42.35" ry="26.74"/>
<text text-anchor="middle" x="664.23" y="-933.08" font-family="Times,serif" font-size="14.00">filter</text>
<text text-anchor="middle" x="664.23" y="-918.08" font-family="Times,serif" font-size="14.00">nid=6</text>
</g>
<!-- n6&#45;&gt;n7 -->
<g id="edge15" class="edge">
<title>n6&#45;&gt;n7</title>
<path fill="none" stroke="grey" d="M634.07,-910.33C611.43,-896.84 580.19,-878.23 555.42,-863.48"/>
<polygon fill="grey" stroke="grey" points="557,-860.35 546.62,-858.24 553.42,-866.36 557,-860.35"/>
</g>
<!-- n6&#45;&gt;n13 -->
<g id="edge16" class="edge">
<title>n6&#45;&gt;n13</title>
<path fill="none" stroke="grey" d="M664.23,-902.14C664.23,-893.83 664.23,-884.5 664.23,-875.62"/>
<polygon fill="grey" stroke="grey" points="667.73,-875.5 664.23,-865.5 660.73,-875.5 667.73,-875.5"/>
</g>
<!-- n5&#45;&gt;n6 -->
<g id="edge17" class="edge">
<title>n5&#45;&gt;n6</title>
<path fill="none" stroke="green" d="M664.23,-1007.14C664.23,-994.07 664.23,-979.35 664.23,-966.31"/>
<polygon fill="green" stroke="green" points="667.73,-966.29 664.23,-956.29 660.73,-966.29 667.73,-966.29"/>
<text text-anchor="middle" x="679.73" y="-977.95" font-family="Times,serif" font-size="14.00">flow</text>
</g>
<!-- n18 -->
<g id="node20" class="node">
<title>n18</title>
<ellipse fill="none" stroke="black" cx="369.23" cy="-1170.58" rx="81.13" ry="37.45"/>
<text text-anchor="middle" x="369.23" y="-1181.88" font-family="Times,serif" font-size="14.00">INT</text>
<text text-anchor="middle" x="369.23" y="-1166.88" font-family="Times,serif" font-size="14.00">nid=18</text>
<text text-anchor="middle" x="369.23" y="-1151.88" font-family="Times,serif" font-size="14.00">value= &#39;2740&#39;</text>
</g>
<!-- n19 -->
<g id="node21" class="node">
<title>n19</title>
<ellipse fill="none" stroke="black" cx="550.23" cy="-1170.58" rx="81.13" ry="37.45"/>
<text text-anchor="middle" x="550.23" y="-1181.88" font-family="Times,serif" font-size="14.00">INT</text>
<text text-anchor="middle" x="550.23" y="-1166.88" font-family="Times,serif" font-size="14.00">nid=19</text>
<text text-anchor="middle" x="550.23" y="-1151.88" font-family="Times,serif" font-size="14.00">value= &#39;5984&#39;</text>
</g>
<!-- n20 -->
<g id="node22" class="node">
<title>n20</title>
<ellipse fill="none" stroke="black" cx="742.23" cy="-1170.58" rx="92.76" ry="37.45"/>
<text text-anchor="middle" x="742.23" y="-1181.88" font-family="Times,serif" font-size="14.00">FLOWPOINT</text>
<text text-anchor="middle" x="742.23" y="-1166.88" font-family="Times,serif" font-size="14.00">nid=20</text>
<text text-anchor="middle" x="742.23" y="-1151.88" font-family="Times,serif" font-size="14.00">value= &#39;[&#39;a&#39;, &#39;b&#39;]&#39;</text>
</g>
<!-- n20&#45;&gt;n5 -->
<g id="edge18" class="edge">
<title>n20&#45;&gt;n5</title>
<path fill="none" stroke="red" d="M686.65,-1140.22C678.05,-1133.17 670.34,-1124.81 665.23,-1115.11 661.55,-1108.13 659.69,-1100.18 658.95,-1092.22"/>
<polygon fill="red" stroke="red" points="662.45,-1092.05 658.57,-1082.19 655.45,-1092.31 662.45,-1092.05"/>
<text text-anchor="middle" x="692.73" y="-1103.91" font-family="Times,serif" font-size="14.00">flow&#45;&gt;a</text>
</g>
<!-- n20&#45;&gt;n5 -->
<g id="edge19" class="edge">
<title>n20&#45;&gt;n5</title>
<path fill="none" stroke="red" d="M734.34,-1133.13C731,-1122.03 726.4,-1110.12 720.23,-1100.11 717.33,-1095.42 713.95,-1090.84 710.3,-1086.47"/>
<polygon fill="red" stroke="red" points="712.76,-1083.97 703.5,-1078.83 707.53,-1088.62 712.76,-1083.97"/>
<text text-anchor="middle" x="755.23" y="-1103.91" font-family="Times,serif" font-size="14.00">flow&#45;&gt;b</text>
</g>
<!-- n17&#45;&gt;n18 -->
<g id="edge21" class="edge">
<title>n17&#45;&gt;n18</title>
<path fill="none" stroke="grey" d="M518.7,-1265.19C492.96,-1249.07 455.95,-1225.89 425.2,-1206.64"/>
<polygon fill="grey" stroke="grey" points="427.04,-1203.66 416.71,-1201.32 423.32,-1209.59 427.04,-1203.66"/>
</g>
<!-- n17&#45;&gt;n19 -->
<g id="edge22" class="edge">
<title>n17&#45;&gt;n19</title>
<path fill="none" stroke="grey" d="M550.23,-1258.93C550.23,-1246.95 550.23,-1232.35 550.23,-1218.55"/>
<polygon fill="grey" stroke="grey" points="553.73,-1218.2 550.23,-1208.2 546.73,-1218.2 553.73,-1218.2"/>
</g>
<!-- n17&#45;&gt;n20 -->
<g id="edge20" class="edge">
<title>n17&#45;&gt;n20</title>
<path fill="none" stroke="green" d="M582.8,-1265.7C609.9,-1249.7 649.22,-1226.49 682.03,-1207.12"/>
<polygon fill="green" stroke="green" points="683.82,-1210.13 690.65,-1202.03 680.26,-1204.1 683.82,-1210.13"/>
<text text-anchor="middle" x="661.73" y="-1229.86" font-family="Times,serif" font-size="14.00">flow</text>
</g>
<!-- n23 -->
<g id="node24" class="node">
<title>n23</title>
<ellipse fill="none" stroke="black" cx="509.23" cy="-373.34" rx="101.23" ry="37.45"/>
<text text-anchor="middle" x="509.23" y="-384.64" font-family="Times,serif" font-size="14.00">FLOWPOINT</text>
<text text-anchor="middle" x="509.23" y="-369.64" font-family="Times,serif" font-size="14.00">nid=23</text>
<text text-anchor="middle" x="509.23" y="-354.64" font-family="Times,serif" font-size="14.00">value= &#39;[&#39;stdout&#39;]&#39;</text>
</g>
<!-- n22&#45;&gt;n23 -->
<g id="edge25" class="edge">
<title>n22&#45;&gt;n23</title>
<path fill="none" stroke="green" d="M509.23,-461.77C509.23,-449.02 509.23,-434.54 509.23,-421.07"/>
<polygon fill="green" stroke="green" points="512.73,-421.02 509.23,-411.02 505.73,-421.02 512.73,-421.02"/>
<text text-anchor="middle" x="524.73" y="-432.61" font-family="Times,serif" font-size="14.00">flow</text>
</g>
<!-- n26 -->
<g id="node26" class="node">
<title>n26</title>
<ellipse fill="none" stroke="black" cx="690.23" cy="-373.34" rx="62.45" ry="37.45"/>
<text text-anchor="middle" x="690.23" y="-384.64" font-family="Times,serif" font-size="14.00">NAME</text>
<text text-anchor="middle" x="690.23" y="-369.64" font-family="Times,serif" font-size="14.00">nid=26</text>
<text text-anchor="middle" x="690.23" y="-354.64" font-family="Times,serif" font-size="14.00">value= &#39;b&#39;</text>
</g>
<!-- n28 -->
<g id="node27" class="node">
<title>n28</title>
<ellipse fill="none" stroke="black" cx="676.23" cy="-261.38" rx="61.54" ry="37.45"/>
<text text-anchor="middle" x="676.23" y="-272.68" font-family="Times,serif" font-size="14.00">NAME</text>
<text text-anchor="middle" x="676.23" y="-257.68" font-family="Times,serif" font-size="14.00">nid=28</text>
<text text-anchor="middle" x="676.23" y="-242.68" font-family="Times,serif" font-size="14.00">value= &#39;a&#39;</text>
</g>
<!-- n29 -->
<g id="node28" class="node">
<title>n29</title>
<ellipse fill="none" stroke="black" cx="826.23" cy="-261.38" rx="70.01" ry="37.45"/>
<text text-anchor="middle" x="826.23" y="-272.68" font-family="Times,serif" font-size="14.00">OPERATOR</text>
<text text-anchor="middle" x="826.23" y="-257.68" font-family="Times,serif" font-size="14.00">nid=29</text>
<text text-anchor="middle" x="826.23" y="-242.68" font-family="Times,serif" font-size="14.00">value= &#39;&#45;&#39;</text>
</g>
<!-- n32 -->
<g id="node29" class="node">
<title>n32</title>
<ellipse fill="none" stroke="black" cx="676.23" cy="-37.48" rx="61.54" ry="37.45"/>
<text text-anchor="middle" x="676.23" y="-48.78" font-family="Times,serif" font-size="14.00">NAME</text>
<text text-anchor="middle" x="676.23" y="-33.78" font-family="Times,serif" font-size="14.00">nid=32</text>
<text text-anchor="middle" x="676.23" y="-18.78" font-family="Times,serif" font-size="14.00">value= &#39;a&#39;</text>
</g>
<!-- n33 -->
<g id="node30" class="node">
<title>n33</title>
<ellipse fill="none" stroke="black" cx="826.23" cy="-37.48" rx="70.01" ry="37.45"/>
<text text-anchor="middle" x="826.23" y="-48.78" font-family="Times,serif" font-size="14.00">OPERATOR</text>
<text text-anchor="middle" x="826.23" y="-33.78" font-family="Times,serif" font-size="14.00">nid=33</text>
<text text-anchor="middle" x="826.23" y="-18.78" font-family="Times,serif" font-size="14.00">value= &#39;/&#39;</text>
</g>
<!-- n34 -->
<g id="node31" class="node">
<title>n34</title>
<ellipse fill="none" stroke="black" cx="976.23" cy="-37.48" rx="62.45" ry="37.45"/>
<text text-anchor="middle" x="976.23" y="-48.78" font-family="Times,serif" font-size="14.00">NAME</text>
<text text-anchor="middle" x="976.23" y="-33.78" font-family="Times,serif" font-size="14.00">nid=34</text>
<text text-anchor="middle" x="976.23" y="-18.78" font-family="Times,serif" font-size="14.00">value= &#39;b&#39;</text>
</g>
<!-- n31 -->
<g id="node32" class="node">
<title>n31</title>
<ellipse fill="none" stroke="black" cx="826.23" cy="-149.43" rx="55.72" ry="26.74"/>
<text text-anchor="middle" x="826.23" y="-153.23" font-family="Times,serif" font-size="14.00">equation</text>
<text text-anchor="middle" x="826.23" y="-138.23" font-family="Times,serif" font-size="14.00">nid=31</text>
</g>
<!-- n31&#45;&gt;n32 -->
<g id="edge27" class="edge">
<title>n31&#45;&gt;n32</title>
<path fill="none" stroke="grey" d="M796.23,-126.44C775.35,-111.14 747.09,-90.42 723.24,-72.94"/>
<polygon fill="grey" stroke="grey" points="725.14,-69.99 715,-66.9 721,-75.64 725.14,-69.99"/>
</g>
<!-- n31&#45;&gt;n33 -->
<g id="edge28" class="edge">
<title>n31&#45;&gt;n33</title>
<path fill="none" stroke="grey" d="M826.23,-122.37C826.23,-111.25 826.23,-97.92 826.23,-85.19"/>
<polygon fill="grey" stroke="grey" points="829.73,-85.16 826.23,-75.16 822.73,-85.16 829.73,-85.16"/>
</g>
<!-- n31&#45;&gt;n34 -->
<g id="edge29" class="edge">
<title>n31&#45;&gt;n34</title>
<path fill="none" stroke="grey" d="M856.22,-126.44C877.1,-111.14 905.36,-90.42 929.21,-72.94"/>
<polygon fill="grey" stroke="grey" points="931.45,-75.64 937.45,-66.9 927.31,-69.99 931.45,-75.64"/>
</g>
<!-- n35 -->
<g id="node33" class="node">
<title>n35</title>
<ellipse fill="none" stroke="black" cx="970.23" cy="-149.43" rx="70.01" ry="37.45"/>
<text text-anchor="middle" x="970.23" y="-160.73" font-family="Times,serif" font-size="14.00">OPERATOR</text>
<text text-anchor="middle" x="970.23" y="-145.73" font-family="Times,serif" font-size="14.00">nid=35</text>
<text text-anchor="middle" x="970.23" y="-130.73" font-family="Times,serif" font-size="14.00">value= &#39;*&#39;</text>
</g>
<!-- n36 -->
<g id="node34" class="node">
<title>n36</title>
<ellipse fill="none" stroke="black" cx="1120.23" cy="-149.43" rx="62.45" ry="37.45"/>
<text text-anchor="middle" x="1120.23" y="-160.73" font-family="Times,serif" font-size="14.00">NAME</text>
<text text-anchor="middle" x="1120.23" y="-145.73" font-family="Times,serif" font-size="14.00">nid=36</text>
<text text-anchor="middle" x="1120.23" y="-130.73" font-family="Times,serif" font-size="14.00">value= &#39;b&#39;</text>
</g>
<!-- n30 -->
<g id="node35" class="node">
<title>n30</title>
<ellipse fill="none" stroke="black" cx="970.23" cy="-261.38" rx="55.72" ry="26.74"/>
<text text-anchor="middle" x="970.23" y="-265.18" font-family="Times,serif" font-size="14.00">equation</text>
<text text-anchor="middle" x="970.23" y="-250.18" font-family="Times,serif" font-size="14.00">nid=30</text>
</g>
<!-- n30&#45;&gt;n31 -->
<g id="edge30" class="edge">
<title>n30&#45;&gt;n31</title>
<path fill="none" stroke="grey" d="M941.08,-238.13C918.74,-221.07 887.73,-197.39 863.56,-178.94"/>
<polygon fill="grey" stroke="grey" points="865.39,-175.93 855.32,-172.65 861.15,-181.5 865.39,-175.93"/>
</g>
<!-- n30&#45;&gt;n35 -->
<g id="edge31" class="edge">
<title>n30&#45;&gt;n35</title>
<path fill="none" stroke="grey" d="M970.23,-234.33C970.23,-223.2 970.23,-209.87 970.23,-197.14"/>
<polygon fill="grey" stroke="grey" points="973.73,-197.12 970.23,-187.12 966.73,-197.12 973.73,-197.12"/>
</g>
<!-- n30&#45;&gt;n36 -->
<g id="edge32" class="edge">
<title>n30&#45;&gt;n36</title>
<path fill="none" stroke="grey" d="M1000.22,-238.4C1021.1,-223.09 1049.36,-202.38 1073.21,-184.89"/>
<polygon fill="grey" stroke="grey" points="1075.45,-187.59 1081.45,-178.85 1071.31,-181.94 1075.45,-187.59"/>
</g>
<!-- n27 -->
<g id="node36" class="node">
<title>n27</title>
<ellipse fill="none" stroke="black" cx="826.23" cy="-373.34" rx="55.72" ry="26.74"/>
<text text-anchor="middle" x="826.23" y="-377.14" font-family="Times,serif" font-size="14.00">equation</text>
<text text-anchor="middle" x="826.23" y="-362.14" font-family="Times,serif" font-size="14.00">nid=27</text>
</g>
<!-- n27&#45;&gt;n28 -->
<g id="edge33" class="edge">
<title>n27&#45;&gt;n28</title>
<path fill="none" stroke="grey" d="M796.23,-350.35C775.35,-335.05 747.09,-314.33 723.24,-296.84"/>
<polygon fill="grey" stroke="grey" points="725.14,-293.9 715,-290.81 721,-299.54 725.14,-293.9"/>
</g>
<!-- n27&#45;&gt;n29 -->
<g id="edge34" class="edge">
<title>n27&#45;&gt;n29</title>
<path fill="none" stroke="grey" d="M826.23,-346.28C826.23,-335.15 826.23,-321.82 826.23,-309.09"/>
<polygon fill="grey" stroke="grey" points="829.73,-309.07 826.23,-299.07 822.73,-309.07 829.73,-309.07"/>
</g>
<!-- n27&#45;&gt;n30 -->
<g id="edge35" class="edge">
<title>n27&#45;&gt;n30</title>
<path fill="none" stroke="grey" d="M855.37,-350.09C877.71,-333.02 908.72,-309.34 932.89,-290.89"/>
<polygon fill="grey" stroke="grey" points="935.3,-293.45 941.13,-284.6 931.06,-287.89 935.3,-293.45"/>
</g>
<!-- n37 -->
<g id="node37" class="node">
<title>n37</title>
<ellipse fill="none" stroke="black" cx="992.23" cy="-373.34" rx="92.76" ry="37.45"/>
<text text-anchor="middle" x="992.23" y="-384.64" font-family="Times,serif" font-size="14.00">FLOWPOINT</text>
<text text-anchor="middle" x="992.23" y="-369.64" font-family="Times,serif" font-size="14.00">nid=37</text>
<text text-anchor="middle" x="992.23" y="-354.64" font-family="Times,serif" font-size="14.00">value= &#39;[&#39;a&#39;, &#39;b&#39;]&#39;</text>
</g>
<!-- n37&#45;&gt;n5 -->
<g id="edge36" class="edge">
<title>n37&#45;&gt;n5</title>
<path fill="none" stroke="red" d="M961.21,-408.77C943.28,-432.25 924.23,-465.03 924.23,-498.29 924.23,-930.28 924.23,-930.28 924.23,-930.28 924.23,-1002.36 839.23,-1029.07 766.44,-1038.73"/>
<polygon fill="red" stroke="red" points="765.76,-1035.28 756.26,-1039.98 766.61,-1042.23 765.76,-1035.28"/>
<text text-anchor="middle" x="951.73" y="-733.5" font-family="Times,serif" font-size="14.00">flow&#45;&gt;a</text>
</g>
<!-- n37&#45;&gt;n5 -->
<g id="edge37" class="edge">
<title>n37&#45;&gt;n5</title>
<path fill="none" stroke="red" d="M1002.58,-410.62C1008.69,-435.16 1015.23,-468.41 1015.23,-498.29 1015.23,-930.28 1015.23,-930.28 1015.23,-930.28 1015.23,-983.71 866.09,-1015.65 762.25,-1031.41"/>
<polygon fill="red" stroke="red" points="761.72,-1027.95 752.34,-1032.88 762.75,-1034.87 761.72,-1027.95"/>
<text text-anchor="middle" x="1043.23" y="-733.5" font-family="Times,serif" font-size="14.00">flow&#45;&gt;b</text>
</g>
<!-- n25&#45;&gt;n26 -->
<g id="edge39" class="edge">
<title>n25&#45;&gt;n26</title>
<path fill="none" stroke="grey" d="M801.6,-475.84C782.07,-458.04 754.34,-432.77 731.44,-411.9"/>
<polygon fill="grey" stroke="grey" points="733.63,-409.16 723.88,-405.01 728.91,-414.33 733.63,-409.16"/>
</g>
<!-- n25&#45;&gt;n27 -->
<g id="edge40" class="edge">
<title>n25&#45;&gt;n27</title>
<path fill="none" stroke="grey" d="M826.23,-472.31C826.23,-454.37 826.23,-430.29 826.23,-410.49"/>
<polygon fill="grey" stroke="grey" points="829.73,-410.29 826.23,-400.29 822.73,-410.29 829.73,-410.29"/>
</g>
<!-- n25&#45;&gt;n37 -->
<g id="edge38" class="edge">
<title>n25&#45;&gt;n37</title>
<path fill="none" stroke="green" d="M841,-473.42C850.51,-459 863.94,-441.28 879.23,-428.81 890.61,-419.53 903.83,-411.36 917.14,-404.36"/>
<polygon fill="green" stroke="green" points="919.01,-407.33 926.35,-399.69 915.85,-401.09 919.01,-407.33"/>
<text text-anchor="middle" x="894.73" y="-432.61" font-family="Times,serif" font-size="14.00">flow</text>
</g>
</g>
</svg>
